<svg viewBox="0 0 1920 1080" xmlns="http://www.w3.org/2000/svg" version="1.1"><g><g><path d="M1920 0 1920 1080 0 1080 0 0Z" fill="#66CCCC" fill-opacity="1"/><path d="M1312.4 240.85 1427.65 240.85 1427.65 309.1 1312.4 309.1Z" fill="#000000"/><path d="M1670.4 480.15 1670.4 574.1 999.15 574.1 999.15 508.4Q1000.7334 509.30527 1002.375 510.15L1197.325 510.15 1223.6 480.15ZM1920 1026.25 162.05 1026.25 162.05 982.25 804.2 982.25 804.2 936.25 1076.25 936.25 1076.25 890.25 1920 890.25ZM1250.3 74.05  718.2 74.05 718.2 104.05 118.05 104.05 118.05 140.05 0 140.05 -0.025 46.05 1250.3 46.05ZM1215.65 493.8 1215.55 493.9 1215.65 493.9ZM496.9 428.1 72.05 428.1 72.05 338.1 496.9 338.1Z" fill="#8BD8D8" fill-opacity="1"/><path d="M1793.15 92 1788 116.8 1766.55 116.8 1771.6 92ZM1471.35 239.25 1471.35 314.05 1468.1 314.05 1468.1 310.55 1468.1 239.25ZM1437.6 239.25 1440.35 239.25 1440.35 310.55 1440.35 314.05 1437.6 314.05ZM1306.85 239.3 1433.65 239.3 1433.65 314.15 1306.85  314.15ZM1452.55 254.85Q1452.3768 254.67676 1452.2 254.5 1450.5859 252.88594 1450.075 250.8 1450.5859 248.71406 1452.2 247.1 1452.3768 246.92324 1452.55 246.75 1452.2 247.70371 1452.2 248.8 1452.2 249.87305 1452.55 250.8 1452.2 251.72695 1452.2  252.8 1452.2 253.89609 1452.55 254.85ZM1463.1 246.625Q1463.3498 246.8498 1463.6 247.1 1465.2141 248.71406 1465.725 250.8 1465.2141 252.88594 1463.6 254.5 1463.3498 254.7502 1463.1 254.975 1463.5 253.97422 1463.5 252.8 1463.5 251.72695 1463.15  250.8 1463.5 249.87305 1463.5 248.8 1463.5 247.62559 1463.1 246.625ZM1301.8 268.05 1301.8 272.9 1290.7 272.9 1246.55 316.6 1246.55 326.85 1241.75 326.85 1241.75 316.6 1290.7 268.05ZM1301.8 239.3 1301.8 240.4 1290.7 240.4 1214.05 316.6 1214.05  326.85 1209 326.85 1209 321.05 1290.7 239.3ZM1301.8 257.45 1301.8 262.5 1290.7 262.5 1236.2 316.6 1236.2 326.85 1231.1 326.85 1231.1 316.6 1290.7 257.45ZM1301.8 278.45 1301.8 283.5 1290.7 283.5 1257.15 316.6 1257.15 326.85 1252.1 326.85 1252.1  316.6 1290.7 278.45ZM1301.8 289.05 1301.8 295.05 1290.7 295.05 1268.7 316.6 1268.7 326.85 1262.7 326.85 1262.7 316.6 1290.7 289.05ZM1301.8 251.9 1290.7 251.9 1225.6 316.6 1225.6 326.85 1219.6 326.85 1219.6 316.6 1290.7 245.9 1301.8 245.9ZM1628.4  545.1 1628.4 549.1 1248.65 549.1 1248.65 545.1ZM856.2 1010.25 1919.975 1010.25 1919.975 1014.25 856.2 1014.25ZM1064.25 545.1 1243.8 545.1 1243.8 549.1 1064.25 549.1ZM1427.65 309.1 1427.65 240.85 1312.4 240.85 1312.4 309.1 1312.4 313.1 1427.65  313.1ZM1301.8 305.65 1290.7 305.65 1279.3 316.6 1279.3 326.85 1274.25 326.85 1274.25 316.6 1290.7 300.55 1301.8 300.55ZM1462.25 445.75 1462.25 454.95 1446.2 454.95 1446.2 452.6Q1446.2 451.2 1446.75 449.95 1447.3 448.7 1448.2 447.8 1449.15 446.85  1450.4 446.3 1451.65 445.75 1453.05 445.75ZM1358.05 761.95 1401.6 761.95Q1404.55 761.95 1406.7 764.05 1408.8047 766.10684 1408.9 768.85L1408.9 786.2 1358.05 786.2ZM1657.3 445.75 1657.3 454.95 1641.25 454.95 1641.25 452.6Q1641.25 451.2 1641.8  449.95 1642.35 448.7 1643.25 447.8 1644.2 446.85 1645.45 446.3 1646.7 445.75 1648.1 445.75ZM282.1 396.05 464.05 396.05 468.15 400.05 282.1 400.05ZM92.05 381.05 282.1 381.05 282.1 385.05 92.05 385.05ZM638.65 316.975Q639.02891 316.12109 639.75  315.4 641.25 313.9 643.3 313.9 645.4 313.9 646.9 315.4 647.62109 316.12109 648 316.975 647.62109 317.82891 646.9 318.55 645.4 320.05 643.3 320.05 641.25 320.05 639.75 318.55 639.02891 317.82891 638.65 316.975ZM646.625 311.15 644.35 311.15Q640.9  311.25 638.45 313.55 638.79648 312.35352 639.75 311.4 641.25 309.9 643.3 309.9 645.21699 309.9 646.625 311.15ZM782 396.05 789.6 396.05 789.6 400.05 782 400.05ZM662.725 634Q662.15117 636.89883 659.9 639.15 656.9 642.15 652.75 642.15 648.6 642.15  645.6 639.15 643.34883 636.89883 642.775 634 643.34883 631.10117 645.6 628.85 648.6 625.85 652.75 625.85 656.9 625.85 659.9 628.85 662.15117 631.10117 662.725 634ZM687.725 748.95Q687.36992 752.00703 686.2 754.8 684.4 758.85 681.45 761.75 678.5  764.7 674.55 766.5 670.5 768.2 666.05 768.2L666.05 729.8Q670.5 729.8 674.55 731.5 678.5 733.3 681.45 736.25 684.4 739.15 686.2 743.05 687.36992 745.91836 687.725 748.95ZM936.05 725.55 936.05 772.45 892.5 772.45 892.5 746.8Q892.59746 742.57988  894.25 738.85 896 734.8 898.9 731.85 901.85 728.9 905.9 727.3 909.85 725.55 914.35 725.55ZM1073.6 732.65 1073.6 736.25Q1073.5062 739.0416 1071.4 741.1 1069.25 743.3 1066.3 743.3L1022.75 743.3 1022.75 725.55 1066.3 725.55Q1069.25 725.55 1071.4  727.75 1073.5062 729.85625 1073.6 732.65ZM1198.5 725.7 1198.5 750.7 1147.75 750.7 1147.75 746.9Q1147.8514 742.73008 1149.55 739.05 1151.25 735.05 1154.2 732.15 1157.1 729.2 1161.1 727.5 1165 725.7 1169.5 725.7ZM1147.75 776.35 1198.5 776.35  1198.5 792.2 1147.75 792.2ZM0 72.05 604.15 72.05 604.15 76.05 0 76.05ZM475.15 396.05 477.7 396.05 481.8 400.05 479.225 400.05ZM372.2 761.95 415.75 761.95Q418.7 761.95 420.85 764.05 422.95469 766.10684 423.05 768.85L423.05 792.2 372.2 792.2Z M548.5 776.35 548.5 792.2 497.75 792.2 497.75 776.35ZM548.5 725.7 548.5 750.7 497.75 750.7 497.75 746.9Q497.85137 742.73008 499.55 739.05 501.25 735.05 504.2 732.15 507.1 729.2 511.1 727.5 515 725.7 519.5 725.7ZM644.2 729.8 644.2 768.2Q639.75  768.2 635.7 766.5 631.75 764.7 628.8 761.75 625.85 758.85 624.15 754.8 622.90449 752.00703 622.525 748.95 622.90449 745.91836 624.15 743.05 625.85 739.15 628.8 736.25 631.75 733.3 635.7 731.5 639.75 729.8 644.2 729.8ZM205.65 893.7 234.65 893.7  234.65 922.7 183.9 922.7 183.9 915.4Q183.9 910.95 185.7 907.05 187.4 903.05 190.35 900.15 193.25 897.2 197.25 895.5 201.15 893.7 205.65 893.7ZM1019.6 885.15 1038.65 885.15Q1039.95 885.15 1040.9 886.1 1041.85 887.05 1041.85 888.35L1041.85 891.45 Q1041.85 892.75 1040.9 893.7 1039.95 894.65 1038.65 894.65L1019.6 894.65ZM934.05 886.1Q935 887.05 935 888.35L935 891.45Q935 892.75 934.05 893.7 933.1 894.65 931.8 894.65L912.75 894.65 912.75 885.15 931.8 885.15Q933.1 885.15 934.05 886.1Z" fill="#66CCCC" fill-opacity="1"/><path d="M1811.45 52.5 1805.5 81.8 1817.35 81.8 1817.35 92 1803.45 92 1798.35 116.8 1817.35 116.8 1817.35 127 1796.3 127 1790.35 156.1 1780.1 156.1 1785.95 127 1764.5 127 1758.55 156.1 1748.3 156.1 1754.25 127 1742.7 127 1742.7 116.8 1756.3 116.8 1761.35  92 1742.7 92 1742.7 81.8 1763.4 81.8 1769.35 52.5 1779.6 52.5 1773.65 81.8 1795.2 81.8 1801.15 52.5ZM1793.15 92 1771.6 92 1766.55 116.8 1788 116.8ZM1713.6 81.85 1677.4 81.85Q1672.95 81.85 1669 83.65 1664.95 85.35 1662.05 88.3 1659.1 91.25 1657.4  95.25 1655.6 99.25 1655.6 103.75L1655.6 110.85Q1655.6 115.35 1657.4 119.35 1659.1 123.35 1662.05 126.3 1664.95 129.25 1669 130.95 1672.95 132.75 1677.4 132.75L1713.6 132.75 1713.6 154.4 1677.4 154.4Q1668.3 154.4 1660.45 151 1652.55 147.55 1646.65  141.7 1640.75 135.8 1637.35 127.9 1633.95 119.95 1633.95 110.85L1633.95 103.75Q1633.95 94.8 1637.35 86.8 1640.75 78.8 1646.65 72.9 1652.55 67.05 1660.45 63.6 1668.3 60.2 1677.4 60.2L1713.6 60.2ZM1243.8 545.1 1064.25 545.1 1064.25 520.05 1114.8  520.05 1114.8 516.05 1114.8 510.15 1120.55 510.15 1120.55 514.3 1120.55 518.3 1190.2 518.3 1197.325 510.15 1227.8 510.15 1243.8 526.15ZM856.2 1010.25 856.2 956.25 1112.3 956.25 1112.3 916.25 1920 916.25 1919.975 1010.25ZM1628.4 545.1 1248.65  545.1 1248.65 518.45 1240.35 510.15 1628.4 510.15ZM1605.25 439.9Q1607.75 438.85 1610.65 438.85L1624.4 438.85 1624.4 445.7 1610.65 445.7Q1609.2 445.7 1607.95 446.25 1606.65 446.8 1605.75 447.75 1604.8 448.65 1604.3 449.95 1603.75 451.2 1603.75  452.65L1603.75 454.9Q1603.75 456.3 1604.3 457.6 1604.8 458.85 1605.75 459.8 1606.65 460.7 1607.95 461.25 1609.2 461.85 1610.65 461.85L1617.55 461.85 1617.55 457.2 1610.65 457.2 1610.65 450.3 1624.4 450.3 1624.4 468.7 1610.65 468.7Q1607.75 468.7  1605.25 467.6 1602.7 466.55 1600.85 464.65 1599 462.8 1597.9 460.3 1596.85 457.75 1596.85 454.9L1596.85 452.65Q1596.85 449.8 1597.9 447.25 1599 444.75 1600.85 442.85 1602.7 441 1605.25 439.9ZM1544.9 442.85Q1546.8 444.75 1547.85 447.25 1548.95  449.8 1548.95 452.65L1548.95 468.7 1542.1 468.7 1542.1 452.65Q1542.1 451.2 1541.5 449.95 1540.95 448.65 1540.05 447.75 1539.1 446.8 1537.85 446.25 1536.55 445.7 1535.15 445.7L1535.15 468.7 1528.25 468.7 1528.25 445.7 1521.4 445.7 1521.4 468.7  1514.45 468.7 1514.45 438.85 1535.15 438.85Q1538 438.85 1540.5 439.9 1543.05 441 1544.9 442.85ZM1566.15 450.3 1584.05 450.3 1584.05 457.25 1566.15 457.25 1566.15 461.85 1586.85 461.85 1586.85 468.7 1559.2 468.7 1559.2 438.85 1586.85 438.85  1586.85 445.75 1566.15 445.75ZM1462.25 445.75 1453.05 445.75Q1451.65 445.75 1450.4 446.3 1449.15 446.85 1448.2 447.8 1447.3 448.7 1446.75 449.95 1446.2 451.2 1446.2 452.6L1446.2 454.95 1462.25 454.95ZM1462.25 468.7 1462.25 461.8 1446.2 461.8  1446.2 468.7 1439.3 468.7 1439.3 452.65Q1439.3 449.8 1440.4 447.3 1441.45 444.75 1443.35 442.9 1445.2 441 1447.7 439.9 1450.25 438.85 1453.05 438.85L1469.2 438.85 1469.2 468.7ZM1495.05 468.7 1488.2 468.7 1488.2 445.7 1479 445.7 1479 438.85  1504.25 438.85 1504.25 445.7 1495.05 445.7ZM1642.75 439.9Q1645.3 438.85 1648.1 438.85L1664.25 438.85 1664.25 468.7 1657.3 468.7 1657.3 461.8 1641.25 461.8 1641.25 468.7 1634.35 468.7 1634.35 452.65Q1634.35 449.8 1635.45 447.3 1636.5 444.75  1638.4 442.9 1640.25 441 1642.75 439.9ZM1657.3 445.75 1648.1 445.75Q1646.7 445.75 1645.45 446.3 1644.2 446.85 1643.25 447.8 1642.35 448.7 1641.8 449.95 1641.25 451.2 1641.25 452.6L1641.25 454.95 1657.3 454.95ZM400.525 334.1 464.05 396.05 282.1  396.05 282.1 385.05 282.1 381.05 92.05 381.05 92.05 334.1ZM475.15 396.05 416.475 338.35 422.775 338.35 426.2 341.7 422.1 341.7 456.8 375.6 782 375.6 782 371.6 782 358.1 789.6 358.1 789.6 396.05 782 396.05 782 383.55 736.45 383.55 469 383.55  473.1 387.55 469 387.55 477.7 396.05ZM604.15 72.05 0 72.05 0 58.05 604.15 58.05ZM104.95 239.6 129.25 239.6 129.25 254.1 104.95 254.1Q102 254.1 99.35 255.3 96.6 256.45 94.65 258.45 92.65 260.4 91.55 263.1 90.35 265.75 90.35 268.8L90.35 273.55 Q90.35 276.6 91.55 279.25 92.65 281.95 94.65 283.95 96.6 285.9 99.35 287.05 102 288.25 104.95 288.25L129.25 288.25 129.25 302.8 104.95 302.8Q98.85 302.8 93.6 300.5 88.25 298.2 84.3 294.25 80.4 290.3 78.1 285 75.8 279.7 75.8 273.55L75.8 268.8 Q75.8 262.8 78.1 257.4 80.4 252.05 84.3 248.1 88.25 244.15 93.6 241.85 98.85 239.6 104.95 239.6ZM153.05 265.75 171.35 265.75 171.35 247.45 179.15 247.45 179.15 265.75 197.45 265.75 197.45 273.5 179.15 273.5 179.15 291.95 171.35 291.95 171.35  273.5 153.05 273.5ZM267.75 265.75 267.75 273.5 249.45 273.5 249.45 291.95 241.65 291.95 241.65 273.5 223.35 273.5 223.35 265.75 241.65 265.75 241.65 247.45 249.45 247.45 249.45 265.75ZM152.05 722.2 250.05 722.2 250.05 742.2 152.05 742.2ZM511  884.6Q516.9 890.5 520.3 898.5 523.75 906.5 523.75 915.45L523.75 966.1 502.05 966.1 502.05 915.45Q502.05 910.95 500.3 906.95 498.6 902.95 495.65 900 492.7 897.05 488.65 895.35 484.7 893.55 480.2 893.55L480.2 966.1 458.5 966.1 458.5 893.55 436.8  893.55 436.8 966.1 414.95 966.1 414.95 871.9 480.2 871.9Q489.15 871.9 497.15 875.3 505.15 878.75 511 884.6ZM378.65 922.9Q381.35 927.5 382 932.6 382.15 933.75 382.2 934.85 382.3 936 382.3 937.1 382.3 943.15 379.95 948.4 377.65 953.65 373.75  957.55 369.85 961.45 364.6 963.8 359.3 966.1 353.3 966.1L288.1 966.1 288.1 944.45 353.3 944.45Q356.3 944.45 358.45 942.25 360.6 940.05 360.6 937.1 360.6 934.2 358.45 932 356.3 929.8 353.3 929.8L317.05 929.8Q311.05 929.8 305.8 927.5 300.55 925.15  296.65 921.25 292.75 917.35 290.4 912.1 288.1 906.85 288.1 900.9 288.1 894.85 290.4 889.6 292.75 884.35 296.65 880.45 300.55 876.55 305.8 874.25 311.05 871.9 317.05 871.9L382.3 871.9 382.3 893.55 317.05 893.55Q314.15 893.55 311.95 895.75 309.75  897.9 309.75 900.9 309.75 903.95 311.85 906 313.95 908.15 317.05 908.15L353.3 908.15Q358.5 908.15 363.4 910.05 368.25 911.9 372.15 915.1 376 918.4 378.65 922.9ZM188.75 875.3Q196.7 871.9 205.65 871.9L256.45 871.9 256.45 966.1 234.65 966.1 234.65  944.35 183.9 944.35 183.9 966.1 162.25 966.1 162.25 915.45Q162.25 906.5 165.65 898.55 169.05 890.65 174.95 884.7 180.85 878.75 188.75 875.3ZM205.65 893.7Q201.15 893.7 197.25 895.5 193.25 897.2 190.35 900.15 187.4 903.05 185.7 907.05 183.9 910.95  183.9 915.4L183.9 922.7 234.65 922.7 234.65 893.7ZM995.45 875.65 995.45 916.9 985.9 916.9 985.9 875.65ZM1019.6 885.15 1019.6 894.65 1038.65 894.65Q1039.95 894.65 1040.9 893.7 1041.85 892.75 1041.85 891.45L1041.85 888.35Q1041.85 887.05 1040.9  886.1 1039.95 885.15 1038.65 885.15ZM1043.6 876.7Q1045.9 877.7 1047.6 879.4 1049.3 881.1 1050.3 883.4 1051.35 885.75 1051.35 888.35L1051.35 891.45Q1051.35 894.1 1050.3 896.4 1049.3 898.7 1047.6 900.45 1045.9 902.2 1043.6 903.2 1041.3 904.2  1038.65 904.2L1019.6 904.2 1019.6 916.9 1010.1 916.9 1010.1 875.65 1038.65 875.65Q1041.3 875.65 1043.6 876.7ZM934.05 886.1Q933.1 885.15 931.8 885.15L912.75 885.15 912.75 894.65 931.8 894.65Q933.1 894.65 934.05 893.7 935 892.75 935 891.45L935  888.35Q935 887.05 934.05 886.1ZM936.75 876.7Q939.05 877.7 940.75 879.4 942.45 881.1 943.45 883.4 944.5 885.75 944.5 888.35L944.5 891.45Q944.5 894.1 943.45 896.4 942.45 898.7 940.75 900.45 939.05 902.2 936.75 903.2 934.45 904.2 931.8 904.2L912.75  904.2 912.75 916.9 903.25 916.9 903.25 875.65 931.8 875.65Q934.45 875.65 936.75 876.7ZM827.95 885.15 827.95 916.9 818.5 916.9 818.5 885.15 805.8 885.15 805.8 875.65 840.65 875.65 840.65 885.15ZM873.15 875.65 889 875.65 889 885.15 873.15 885.15 Q871.2 885.15 869.45 885.95 867.7 886.7 866.4 887.95 865.15 889.25 864.4 891 863.6 892.75 863.6 894.75L863.6 897.85Q863.6 899.8 864.4 901.55 865.15 903.3 866.4 904.6 867.7 905.9 869.45 906.65 871.2 907.4 873.15 907.4L889 907.4 889 916.9 873.15  916.9Q869.15 916.9 865.75 915.4 862.25 913.9 859.7 911.35 857.1 908.75 855.6 905.3 854.15 901.8 854.15 897.85L854.15 894.75Q854.15 890.8 855.6 887.3 857.1 883.8 859.7 881.25 862.25 878.65 865.75 877.15 869.15 875.65 873.15 875.65ZM956.4 917.65  969.1 872.3 973.4 872.3 960.75 917.65Z" fill="#9FDFDF" fill-opacity="1"/><path d="M1744.45 288.1 1588.4 288.1 1588.4 230.05 1744.45 230.05ZM1430.55 786.2 1475.475 786.2Q1479.1318 789.63984 1483.525 792.2L1430.55 792.2ZM1408.9 786.2 1408.9 792.2 1358.05 792.2 1358.05 786.2ZM1541.6 792.2 1541.6 786.2 1570.4 786.2 1570.4 846.2  1350.35 846.2 1350.35 818.2 1550.4 818.2 1550.4 792.2ZM1094.3 186.05 888.25 186.05 888.25 124.05 1094.3 124.05ZM934.05 524.15 999.15 524.15 999.15 574.1 934.05 574.1ZM398.1 166.05 152.05 166.05 152.05 104.05 398.1 104.05ZM152.05 722.2 152.05  742.2 250.05 742.2 250.05 722.2ZM122.05 712.2 282.1 712.2 282.1 754.2 122.05 754.2Z" fill="#70CFCF" fill-opacity="1"/><path d="M1437.6 239.25 1437.6 314.05 1440.35 314.05 1468.1 314.05 1471.35 314.05 1471.35 239.25 1471.35 235.25 1437.6 235.25ZM1306.85 239.3 1306.85 314.15 1433.65 314.15 1433.65 239.3 1433.65 235.3 1306.85 235.3ZM1465.725 250.8Q1465.95 249.84902 1465.95  248.8 1465.95 245.45 1463.6 243.1 1462.9639 242.46387 1462.25 242 1460.3434 240.75 1457.9 240.75 1455.4566 240.75 1453.55 242 1452.8361 242.46387 1452.2 243.1 1449.85 245.45 1449.85 248.8 1449.85 249.84902 1450.075 250.8 1450.5859 252.88594  1452.2 254.5 1452.3768 254.67676 1452.55 254.85 1454.8018 256.85 1457.9 256.85 1460.8934 256.85 1463.1 254.975 1463.3498 254.7502 1463.6 254.5 1465.2141 252.88594 1465.725 250.8ZM1463.1 246.625Q1463.5 247.62559 1463.5 248.8 1463.5 249.87305  1463.15 250.8 1462.7467 251.90332 1461.85 252.8 1460.2 254.45 1457.85 254.45 1455.5 254.45 1453.85 252.8 1452.9533 251.90332 1452.55 250.8 1452.2 249.87305 1452.2 248.8 1452.2 247.70371 1452.55 246.75 1452.9697 245.68027 1453.85 244.8 1455.5  243.15 1457.85 243.15 1460.2 243.15 1461.85 244.8 1462.6754 245.62539 1463.1 246.625ZM1468.1 310.55 1440.35 310.55 1440.35 239.25 1440.35 238 1468.1 238 1468.1 239.25ZM1301.8 239.3 1301.8 235.3 1290.7 235.3 1209 317.05 1209 321.05 1209 326.85  1214.05 326.85 1214.05 316.6 1290.7 240.4 1301.8 240.4ZM1301.8 268.05 1290.7 268.05 1241.75 316.6 1241.75 326.85 1246.55 326.85 1246.55 316.6 1290.7 272.9 1301.8 272.9ZM1301.8 289.05 1290.7 289.05 1262.7 316.6 1262.7 326.85 1268.7 326.85 1268.7  316.6 1290.7 295.05 1301.8 295.05ZM1301.8 278.45 1290.7 278.45 1252.1 316.6 1252.1 326.85 1257.15 326.85 1257.15 316.6 1290.7 283.5 1301.8 283.5ZM1301.8 257.45 1290.7 257.45 1231.1 316.6 1231.1 326.85 1236.2 326.85 1236.2 316.6 1290.7 262.5  1301.8 262.5ZM1301.8 251.9 1301.8 245.9 1290.7 245.9 1219.6 316.6 1219.6 326.85 1225.6 326.85 1225.6 316.6 1290.7 251.9ZM1120.55 514.3 1120.55 510.15 1120.55 509 1187.8 509 1213.7 480.15 1225.7 466.8 1281.75 466.8 1323.9 419.9 1399.2 419.9  1483.8 336.6 1487.85 332.6 1120.55 332.6 1120.55 326.85 1203.45 326.85 1203.45 316.6 1290.7 229.8 1472.45 229.8Q1473.65 230 1474.55 230.9 1475.45 231.8 1475.65 233.05L1475.65 315.5Q1475.6 317.4 1474.25 318.75 1472.9 320.1 1471 320.15L1301.8  320.15 1301.8 311.15 1290.7 311.15 1284.85 316.6 1284.85 326.85 1501.2 326.85 1497.1 330.85 1401.05 424.6 1327.25 424.6 1284.15 471.65 1227.55 471.65 1190.2 514.3ZM1207.7 557.05 1207.7 552 1240 552 1240 551.9 1243.8 551.9 1243.8 549.1 1243.8  545.1 1243.8 526.15 1243.8 522.15 1217.45 495.8 1215.55 493.9 1219.6 489.4 1240.35 510.15 1248.65 518.45 1248.65 545.1 1248.65 549.1 1248.65 551.9 1252.45 551.9 1252.45 552 1283.8 552 1283.8 557.05ZM1211.2 474.15 1185.35 504.15 1120.55 504.15  1120.55 480.15 1120.55 470.15 1214.65 470.15ZM1114.8 480.15 1114.8 510.15 1114.8 516.05 1042.65 516.05Q1024.4 516.05 1008.65 509.1 992.85 502.4 981.2 490.55 969.3 478.8 962.4 462.9 955.91562 447.8334 955.6 430.675 955.60176 430.28789 955.6  429.9 955.6 429.45078 955.6 429L955.6 425.9 998.95 425.9 998.95 429Q998.95 438 1002.5 445.95 1006 454 1011.85 459.75 1017.75 465.65 1025.8 469.1 1033.65 472.7 1042.65 472.7L1114.8 472.7ZM1474.175 339.95 1443.45 369.85 1120.55 369.85 1120.55  335.95 1478.3 335.95 1477.625 336.6ZM1301.8 305.65 1301.8 300.55 1290.7 300.55 1274.25 316.6 1274.25 326.85 1279.3 326.85 1279.3 316.6 1290.7 305.65ZM1427.15 385.85 1397.7 414.6 1120.55 414.6 1120.55 381.85 1431.25 381.85ZM1308.05 430.45 1279.3  461.05 1120.55 461.05 1120.55 426.45 1311.8 426.45ZM697 300.575 695.05 298.6Q695.3 298.35 695.4 298.25 707.1334 286.5166 707.8 270.3 707.85 269.30723 707.85 268.3 707.85 251.96387 697.075 240.175 696.26113 239.30078 695.4 238.45 695.3 238.3  695.2 238.1L699.8 233.35Q700 233.6 700.15 233.7 714.45 248 714.45 268.3 714.45 269.30723 714.425 270.3 713.74043 289.30703 700.15 302.85 699.9 303.1 699.7 303.35ZM690.475 270.3Q690.55 269.31211 690.55 268.3 690.55 259.20313 684.925 252.525  684.1209 251.5584 683.2 250.65 683.1 250.55 683.1 250.4L687.9 245.45Q688.05 245.6 688.15 245.7 697.5 255.05 697.5 268.3 697.5 269.31133 697.45 270.3 696.78633 282.26367 688.15 290.9 687.9 291.1 687.8 291.25L684.8 288.3 682.85 286.4Q683.1 286.15  683.2 286.05 689.83125 279.37363 690.475 270.3ZM726.375 270.3Q726.4 269.30605 726.4 268.3 726.4 244.16816 710.1 226.875 709.34043 226.08594 708.55 225.3 708.3 225.05 708.2 224.85L712.35 220.55Q712.6 220.8 712.8 221 732.4 240.6 732.4 268.3 732.4  269.30645 732.375 270.3 731.68906 296.75723 712.8 315.55 712.6 315.8 712.35 316L710.125 313.775 708.1 311.75Q708.3 311.65 708.55 311.4 725.68887 294.26113 726.375 270.3ZM636.05 324.75 636.05 315.45Q636.15 312 638.45 309.55 640.9 307.25 644.35  307.15L662.2 307.15 662.2 278.9Q660 278.1 658.3 276.35 656.04883 274.09883 655.475 271.2 655.3 270.23594 655.3 269.2 655.3 265.05 658.3 262.05 661.3 259.05 665.45 259.05 669.6 259.05 672.6 262.05 675.6 265.05 675.6 269.2 675.6 270.23594 675.425  271.2 674.85117 274.09883 672.6 276.35 671.1 277.85 669.25 278.65L669.25 307.15Q673.15 320.85 686.9 324.75L678.4 324.75ZM636.05 328.6 686.4 328.6 736.45 328.6 736.45 334.35 412.4 334.35 416.475 338.35 475.15 396.05 479.225 400.05 501.15 421.6  576.35 421.6 582.175 428.1 618.5 468.55 674.65 468.55 712.45 510.7 736.45 510.7 736.45 516.05 710.05 516.05 672.7 473.35 616.1 473.35 573 426.35 499.2 426.35 403.1 332.6 399 328.6ZM646.625 311.15Q645.21699 309.9 643.3 309.9 641.25 309.9 639.75  311.4 638.79648 312.35352 638.45 313.55 638.25 314.23496 638.25 315 638.25 316.06465 638.65 316.975 639.02891 317.82891 639.75 318.55 641.25 320.05 643.3 320.05 645.4 320.05 646.9 318.55 647.62109 317.82891 648 316.975 648.4 316.06445 648.4  315 648.4 312.9 646.9 311.4 646.76914 311.26914 646.625 311.15ZM422.775 338.35 422.1 337.7 736.45 337.7 736.45 371.6 456.8 371.6 426.2 341.7ZM736.45 416.3 502.55 416.3 473.1 387.55 469 383.55 736.45 383.55ZM592.225 432.2 588.45 428.2 736.45  428.2 736.45 462.75 620.95 462.75ZM736.45 505.9 714.9 505.9 689.05 475.85 685.6 471.85 736.45 471.85ZM1218.8 567.35 1218.8 562.95 1274.35 562.95 1274.35 567.35ZM1259.35 576.2 1233.75 576.2 1233.75 572.15 1259.35 572.15ZM620.475 227.325Q604.55  244.47832 604.55 268.3 604.55 269.30605 604.575 270.3 605.26309 294.26113 622.45 311.4 622.65 311.5 622.9 311.75L620.875 313.775 618.65 316Q618.4 315.8 618.15 315.55 599.26094 296.75723 598.575 270.3 598.55 269.30645 598.55 268.3 598.55 240.6  618.15 221L622.45 225.3Q621.4375 226.3041 620.475 227.325ZM633.925 300.5 631.2 303.2Q631.1 303.1 630.85 302.85 617.26133 289.30879 616.575 270.3 616.55 269.30977 616.55 268.3 616.55 248.1 630.85 233.7L635.45 238.45Q634.45957 239.45254 633.55  240.475 623.15 252.30098 623.15 268.3 623.15 269.30918 623.2 270.3 623.86797 286.51797 635.6 298.25 635.7 298.35 635.95 298.5ZM640.625 270.3Q641.26152 279.37617 647.8 286.05 647.9 286.05 648.05 286.15L646.075 288.125 643.05 291.1Q642.95 291  642.85 290.9 634.21426 282.26426 633.55 270.3 633.5 269.3123 633.5 268.3 633.5 255.15 642.75 245.8L647.7 250.75Q646.68965 251.78164 645.825 252.875 640.55 259.49844 640.55 268.3 640.55 269.31563 640.625 270.3Z" fill="#0054A4" fill-opacity="1"/><path d="M1437.6 239.25 1437.6 235.25 1471.35 235.25 1471.35 239.25 1468.1 239.25 1468.1 238 1440.35 238 1440.35 239.25ZM1440.35 310.55 1468.1 310.55 1468.1 314.05 1440.35 314.05ZM1433.65 239.3 1306.85 239.3 1306.85 235.3 1433.65 235.3ZM1465.725 250.8 Q1465.2141 248.71406 1463.6 247.1 1463.3498 246.8498 1463.1 246.625 1462.6754 245.62539 1461.85 244.8 1460.2 243.15 1457.85 243.15 1455.5 243.15 1453.85 244.8 1452.9697 245.68027 1452.55 246.75 1452.3768 246.92324 1452.2 247.1 1450.5859 248.71406  1450.075 250.8 1449.85 249.84902 1449.85 248.8 1449.85 245.45 1452.2 243.1 1452.8361 242.46387 1453.55 242 1455.4566 240.75 1457.9 240.75 1460.3434 240.75 1462.25 242 1462.9639 242.46387 1463.6 243.1 1465.95 245.45 1465.95 248.8 1465.95 249.84902  1465.725 250.8ZM1463.15 250.8Q1463.5 251.72695 1463.5 252.8 1463.5 253.97422 1463.1 254.975 1460.8934 256.85 1457.9 256.85 1454.8018 256.85 1452.55 254.85 1452.2 253.89609 1452.2 252.8 1452.2 251.72695 1452.55 250.8 1452.9533 251.90332 1453.85  252.8 1455.5 254.45 1457.85 254.45 1460.2 254.45 1461.85 252.8 1462.7467 251.90332 1463.15 250.8ZM1301.8 239.3 1290.7 239.3 1209 321.05 1209 317.05 1290.7 235.3 1301.8 235.3ZM1301.8 320.15 1471 320.15Q1472.9 320.1 1474.25 318.75 1475.6 317.4  1475.65 315.5L1475.65 319.5Q1475.6 321.4 1474.25 322.75 1472.9 324.1 1471 324.15L1301.8 324.15ZM1197.325 510.15 1190.2 518.3 1120.55 518.3 1120.55 514.3 1190.2 514.3 1227.55 471.65 1284.15 471.65 1327.25 424.6 1401.05 424.6 1497.1 330.85 1501.2  330.85 1401.05 428.6 1327.25 428.6 1284.15 475.65 1227.55 475.65ZM1243.8 526.15 1227.8 510.15 1215.55 497.9 1217.45 495.8 1243.8 522.15ZM1211.2 474.15 1214.65 474.15 1209.475 480.15 1185.35 508.15 1120.55 508.15 1120.55 504.15 1185.35 504.15Z M1207.7 557.05 1283.8 557.05 1283.8 561.05 1207.7 561.05ZM1114.8 516.05 1114.8 520.05 1064.25 520.05 1042.65 520.05Q1024.4 520.05 1008.65 513.1 1003.6961 510.99922 999.15 508.4 989.19727 502.68457 981.2 494.55 969.3 482.8 962.4 466.9 955.6 451.1  955.6 433L955.6 430.675Q955.91562 447.8334 962.4 462.9 969.3 478.8 981.2 490.55 992.85 502.4 1008.65 509.1 1024.4 516.05 1042.65 516.05ZM1477.625 336.6 1478.3 335.95 1120.55 335.95 1120.55 332.6 1487.85 332.6 1483.8 336.6ZM1120.55 369.85 1443.45  369.85 1474.175 339.95 1478.3 339.95 1443.45 373.85 1120.55 373.85ZM1312.4 309.1 1427.65 309.1 1427.65 313.1 1312.4 313.1ZM1427.15 385.85 1431.25 385.85 1397.7 418.6 1120.55 418.6 1120.55 414.6 1397.7 414.6ZM1308.05 430.45 1311.8 430.45 1279.3  465.05 1120.55 465.05 1120.55 461.05 1279.3 461.05ZM1430.55 729.5 1430.55 733Q1430.55 737.95 1428.85 742.6 1427.6236 746.09297 1425.625 749.05 1424.9332 748.02578 1424.15 747.05 1427.2 743.3 1428.85 738.6 1430.4641 734.18535 1430.55 729.5Z M1541.6 794.1 1541.6 798.1 1505.4 798.1Q1496.3 798.1 1488.45 794.7 1485.8791 793.57734 1483.525 792.2 1479.1318 789.63984 1475.475 786.2 1475.0594 785.80586 1474.65 785.4 1468.75 779.5 1465.35 771.6 1461.95 763.65 1461.95 754.55L1461.95 751.55 Q1462.1375 760.08848 1465.35 767.6 1468.75 775.5 1474.65 781.4 1480.55 787.25 1488.45 790.7 1496.3 794.1 1505.4 794.1ZM1483.6 746.95 1483.6 743.45Q1483.6 738.95 1485.4 734.95 1487.1 730.95 1490.05 728 1492.95 725.05 1497 723.35 1500.95 721.55  1505.4 721.55L1541.6 721.55 1541.6 725.55 1505.4 725.55Q1500.95 725.55 1497 727.35 1492.95 729.05 1490.05 732 1487.1 734.95 1485.4 738.95 1483.7004 742.72715 1483.6 746.95ZM1358.05 761.95 1358.05 757.95 1401.6 757.95Q1404.55 757.95 1406.7 760.05  1408.9 762.2 1408.9 765.1L1408.9 768.85Q1408.8047 766.10684 1406.7 764.05 1404.55 761.95 1401.6 761.95ZM548.5 725.7 519.5 725.7Q515 725.7 511.1 727.5 507.1 729.2 504.2 732.15 501.25 735.05 499.55 739.05 497.85137 742.73008 497.75 746.9L497.75  743.4Q497.75 738.95 499.55 735.05 501.25 731.05 504.2 728.15 507.1 725.2 511.1 723.5 515 721.7 519.5 721.7L548.5 721.7ZM439.775 749.05Q439.0832 748.02578 438.3 747.05 441.35 743.3 443 738.6 444.61406 734.18535 444.7 729.5L444.7 733Q444.7 737.95  443 742.6 441.77363 746.09297 439.775 749.05ZM631.9 792.2Q629.47891 791.47539 627.15 790.45 619.3 787.05 613.4 781.15 607.55 775.25 604.1 767.25 600.75 759.75 600.65 751.05 600.66152 750.0459 600.725 749.05 601.13887 756.6207 604.1 763.25 607.55  771.25 613.4 777.15 619.3 783.05 627.15 786.45 635.1 789.95 644.2 789.95L644.2 793.95Q637.76582 793.95 631.9 792.2ZM622.525 748.95Q622.38672 747.96738 622.35 746.95 622.5 742.85 624.15 739.05 625.85 735.15 628.8 732.25 631.75 729.3 635.7 727.5  639.75 725.8 644.2 725.8L644.2 729.8Q639.75 729.8 635.7 731.5 631.75 733.3 628.8 736.25 625.85 739.15 624.15 743.05 622.90449 745.91836 622.525 748.95ZM678.3 792.2Q672.48418 793.95 666.05 793.95L666.05 789.95Q675.15 789.95 683 786.45 690.95  783.05 696.8 777.15 702.7 771.25 706.2 763.25 709.07266 756.6207 709.525 749.05 709.58262 750.0459 709.6 751.05 709.45 759.75 706.2 767.25 702.7 775.25 696.8 781.15 690.95 787.05 683 790.45 680.70039 791.47539 678.3 792.2ZM936.05 725.55 914.35  725.55Q909.85 725.55 905.9 727.3 901.85 728.9 898.9 731.85 896 734.8 894.25 738.85 892.59746 742.57988 892.5 746.8L892.5 743.3Q892.5 738.8 894.25 734.85 896 730.8 898.9 727.85 901.85 724.9 905.9 723.3 909.85 721.55 914.35 721.55L936.05 721.55Z M761.8 761.95 761.8 757.95 818.2 757.95 818.2 761.95ZM761.8 725.7 761.8 721.7 827.05 721.7 827.05 725.7ZM1022.75 769.1 1022.75 765.1 1066.3 765.1Q1072.3 765.1 1077.55 762.8 1082.85 760.45 1086.75 756.5 1090.6 752.55 1092.95 747.25 1095.1057  742.32949 1095.25 736.75L1095.25 740Q1095.25 746 1092.95 751.25 1090.6 756.55 1086.75 760.5 1082.85 764.45 1077.55 766.8 1072.3 769.1 1066.3 769.1ZM1358.05 794.1 1358.05 798.1 1336.35 798.1 1336.35 794.1ZM1408.9 794.1 1430.55 794.1 1430.55  798.1 1408.9 798.1ZM1114.8 371 1114.8 375 1042.65 375Q1033.65 375 1025.8 378.45 1017.75 381.8 1011.85 387.8 1006 393.7 1002.5 401.75 999.15937 409.23145 998.95 417.725L998.95 414.8Q998.95 405.7 1002.5 397.75 1006 389.7 1011.85 383.8 1017.75  377.8 1025.8 374.45 1033.65 371 1042.65 371ZM732.375 270.3Q732.4 271.29531 732.4 272.3 732.4 300.05 712.8 319.55 712.6 319.8 712.35 320L708.1 315.75Q708.3 315.65 708.55 315.4 709.35547 314.59453 710.125 313.775L712.35 316Q712.6 315.8 712.8  315.55 731.68906 296.75723 732.375 270.3ZM710.1 226.875Q726.4 244.16816 726.4 268.3 726.4 269.30605 726.375 270.3 725.68887 246.34277 708.55 229.3 708.3 229.05 708.2 228.85ZM684.925 252.525Q690.55 259.20313 690.55 268.3 690.55 269.31211 690.475  270.3 689.83125 261.19102 683.2 254.65 683.1 254.55 683.1 254.4ZM697 300.575 699.7 303.35Q699.9 303.1 700.15 302.85 713.74043 289.30703 714.425 270.3 714.45 271.29277 714.45 272.3 714.45 292.6 700.15 306.85 699.9 307.1 699.7 307.35L695.05 302.6 Q695.3 302.35 695.4 302.25 696.22266 301.42734 697 300.575ZM697.075 240.175Q707.85 251.96387 707.85 268.3 707.85 269.30723 707.8 270.3 707.1334 254.04199 695.4 242.45 695.3 242.3 695.2 242.1ZM684.8 288.3 687.8 291.25Q687.9 291.1 688.15 290.9  696.78633 282.26367 697.45 270.3 697.5 271.28867 697.5 272.3 697.5 285.55 688.15 294.9 687.9 295.1 687.8 295.25L682.85 290.4Q683.1 290.15 683.2 290.05 684.04668 289.19766 684.8 288.3ZM686.4 328.6 636.05 328.6 636.05 324.75 678.4 324.75Q681.83867  327.22812 686.4 328.6ZM736.45 337.7 422.1 337.7 422.775 338.35 416.475 338.35 412.4 334.35 736.45 334.35 782 334.35 782 337.7ZM922.825 423.95Q922.0582 422.92773 921.25 421.95 927.45 414.35 930.7 405 933.88047 396.12305 934.05 386.75L934.05  389.75Q934.05 399.65 930.7 409 927.87363 417.13125 922.825 423.95ZM890.8 516.05 934.05 516.05 934.05 520.05 890.8 520.05ZM789.6 443.75 876.05 443.75Q882.05 443.75 886.3 447.8 890.8 452.15 890.8 458.05L890.8 461.55Q890.6082 455.96465 886.3 451.8  882.05 447.75 876.05 447.75L789.6 447.75ZM464.05 396.05 400.525 334.1 399 332.6 403.1 332.6 499.2 426.35 573 426.35 616.1 473.35 672.7 473.35 710.05 516.05 736.45 516.05 782 516.05 782 520.05 710.05 520.05 672.7 477.35 616.1 477.35 573 430.35  499.2 430.35 468.15 400.05ZM648 316.975Q647.62109 316.12109 646.9 315.4 645.4 313.9 643.3 313.9 641.25 313.9 639.75 315.4 639.02891 316.12109 638.65 316.975 638.25 316.06465 638.25 315 638.25 314.23496 638.45 313.55 640.9 311.25 644.35 311.15 L646.625 311.15Q646.76914 311.26914 646.9 311.4 648.4 312.9 648.4 315 648.4 316.06445 648 316.975ZM426.2 341.7 456.8 371.6 736.45 371.6 782 371.6 782 375.6 456.8 375.6 422.1 341.7ZM473.1 387.55 502.55 416.3 736.45 416.3 782 416.3 782 420.3 502.55  420.3 481.8 400.05 477.7 396.05 469 387.55ZM955.6 418.15 998.95 418.15Q998.95 418.47422 998.95 418.8L998.95 422.15 955.6 422.15 955.6 418.8Q955.6 418.47461 955.6 418.15ZM592.225 432.2 620.95 462.75 736.45 462.75 782 462.75 782 466.75 620.95  466.75 588.45 432.2ZM689.05 475.85 714.9 505.9 736.45 505.9 782 505.9 782 509.9 714.9 509.9 685.6 475.85ZM672.8 573.8 672.8 577.8 655.2 577.8 655.2 573.8ZM654.6 525.9 654.6 521.9 681.4 495.1 683.3 497.2ZM615.65 562 691.7 562 691.7 566 615.65  566ZM650 578 632.7 578 632.7 574 650 574ZM636.05 633.65Q636.68262 639.29004 640.9 643.55 645.85 648.5 652.75 648.5 659.65 648.5 664.65 643.55 668.86758 639.28984 669.5 633.65 669.6 634.62891 669.6 635.65 669.6 642.55 664.65 647.55 659.65 652.5  652.75 652.5 645.85 652.5 640.9 647.55 635.95 642.55 635.95 635.65 635.95 634.62891 636.05 633.65ZM642.775 634Q642.6 633.03594 642.6 632 642.6 627.85 645.6 624.85 648.6 621.85 652.75 621.85 656.9 621.85 659.9 624.85 662.9 627.85 662.9 632 662.9  633.03594 662.725 634 662.15117 631.10117 659.9 628.85 656.9 625.85 652.75 625.85 648.6 625.85 645.6 628.85 643.34883 631.10117 642.775 634ZM687.725 748.95Q687.36992 745.91836 686.2 743.05 684.4 739.15 681.45 736.25 678.5 733.3 674.55 731.5  670.5 729.8 666.05 729.8L666.05 725.8Q670.5 725.8 674.55 727.5 678.5 729.3 681.45 732.25 684.4 735.15 686.2 739.05 687.75 742.85 687.85 746.95 687.82539 747.96738 687.725 748.95ZM1259.35 576.2 1259.35 580.2 1233.75 580.2 1233.75 576.2ZM1218.8  567.35 1274.35 567.35 1274.35 571.35 1218.8 571.35ZM1073.6 732.65Q1073.5062 729.85625 1071.4 727.75 1069.25 725.55 1066.3 725.55L1022.75 725.55 1022.75 721.55 1066.3 721.55Q1069.25 721.55 1071.4 723.75 1073.6 725.95 1073.6 728.9ZM1198.5 725.7  1169.5 725.7Q1165 725.7 1161.1 727.5 1157.1 729.2 1154.2 732.15 1151.25 735.05 1149.55 739.05 1147.8514 742.73008 1147.75 746.9L1147.75 743.4Q1147.75 738.95 1149.55 735.05 1151.25 731.05 1154.2 728.15 1157.1 725.2 1161.1 723.5 1165 721.7 1169.5  721.7L1198.5 721.7ZM1198.5 776.35 1147.75 776.35 1147.75 772.35 1198.5 772.35ZM598.575 270.3Q599.26094 296.75723 618.15 315.55 618.4 315.8 618.65 316L620.875 313.775Q621.64375 314.5959 622.45 315.4 622.65 315.5 622.9 315.75L618.65 320Q618.4  319.8 618.15 319.55 598.55 300.05 598.55 272.3 598.55 271.29531 598.575 270.3ZM640.625 270.3Q640.55 269.31563 640.55 268.3 640.55 259.49844 645.825 252.875L647.7 254.75Q641.25664 261.32852 640.625 270.3ZM620.475 227.325 622.45 229.3Q605.26309  246.34277 604.575 270.3 604.55 269.30605 604.55 268.3 604.55 244.47832 620.475 227.325ZM623.2 270.3Q623.15 269.30918 623.15 268.3 623.15 252.30098 633.55 240.475L635.45 242.45Q623.8623 254.1791 623.2 270.3ZM616.575 270.3Q617.26133 289.30879  630.85 302.85 631.1 303.1 631.2 303.2L633.925 300.5Q634.73574 301.38574 635.6 302.25 635.7 302.35 635.95 302.5L631.2 307.2Q631.1 307.1 630.85 306.85 616.55 292.6 616.55 272.3 616.55 271.29512 616.575 270.3ZM646.075 288.125Q646.87461 289.10547  647.8 290.05 647.9 290.05 648.05 290.15L643.05 295.1Q642.95 295 642.85 294.9 633.5 285.55 633.5 272.3 633.5 271.28965 633.55 270.3 634.21426 282.26426 642.85 290.9 642.95 291 643.05 291.1ZM626.7 538 633.05 538 633.05 540.65 626.7 540.65ZM624.05  540.65 617.85 540.65 617.85 538 624.05 538ZM624.05 543 626.7 543 626.7 547 624.05 547ZM423.05 768.85Q422.95469 766.10684 420.85 764.05 418.7 761.95 415.75 761.95L372.2 761.95 372.2 757.95 415.75 757.95Q418.7 757.95 420.85 760.05 423.05 762.2  423.05 765.1ZM548.5 776.35 497.75 776.35 497.75 772.35 548.5 772.35ZM666.05 798.25 666.05 802.25 644.2 802.25 644.2 798.25ZM548.5 794.1 570.3 794.1 570.3 798.1 548.5 798.1ZM476.1 794.1 497.75 794.1 497.75 798.1 476.1 798.1ZM423.05 794.1 444.7  794.1 444.7 798.1 423.05 798.1ZM350.5 794.1 372.2 794.1 372.2 798.1 350.5 798.1ZM1198.5 794.1 1220.3 794.1 1220.3 798.1 1198.5 798.1ZM1147.75 794.1 1147.75 798.1 1126.1 798.1 1126.1 794.1ZM1001.05 794.1 1022.75 794.1 1022.75 798.1 1001.05 798.1Z M945.8 798.1 882.7 798.1 882.7 794.1 945.8 794.1ZM945.8 808.65 967.55 808.65 967.55 812.65 945.8 812.65ZM861 808.65 882.7 808.65 882.7 812.65 861 812.65ZM739.95 794.1 827.05 794.1 827.05 798.1 739.95 798.1Z" fill="#63989A" fill-opacity="1"/><path d="M1382.5 245.25 1399.8 245.25 1402.9 248.35 1399.8 251.55 1382.5 251.55 1379.25 248.35ZM1382.25 276.15 1379.15 273 1382.25 269.8 1399.65 269.8 1402.75 273 1399.65 276.15ZM1381.9 252.05 1381.9 269.45 1378.8 272.55 1375.55 269.45 1375.55 252.05  1378.8 248.9ZM1382.25 294.2 1399.65 294.2 1402.75 297.45 1399.65 300.55 1382.25 300.55 1379.15 297.45ZM1403.35 273.25 1406.45 276.35 1406.45 293.75 1403.35 296.9 1400.1 293.75 1400.1 276.35ZM1359.65 245.25 1362.9 248.35 1359.65 251.55 1342.35  251.55 1339.15 248.35 1342.35 245.25ZM1335.45 293.9 1335.45 276.45 1338.7 273.35 1341.8 276.45 1341.8 293.9 1338.7 297ZM1335.45 269.45 1335.45 252.05 1338.7 248.9 1341.8 252.05 1341.8 269.45 1338.7 272.55ZM1342.25 294.2 1359.55 294.2 1362.75  297.45 1359.55 300.55 1342.25 300.55 1339 297.45ZM998.95 418.15 955.6 418.15 955.6 414.8Q955.6 396.7 962.4 380.8 969.3 364.8 981.2 353 992.85 341.25 1008.65 334.55 1024.4 327.65 1042.65 327.65L1114.8 327.65 1114.8 371 1042.65 371Q1033.65 371  1025.8 374.45 1017.75 377.8 1011.85 383.8 1006 389.7 1002.5 397.75 998.95 405.7 998.95 414.8L998.95 417.725ZM782 334.35 736.45 334.35 736.45 328.6 782 328.6ZM736.45 371.6 736.45 337.7 782 337.7 782 338.1 782 358.1 782 371.6ZM789.6 428.1 789.6  400.05 838.2 400.05 876.05 400.05Q882.05 400.05 886.3 395.9 890.61113 391.92422 890.8 386.25L890.8 328 934.05 328 934.05 386.75Q933.88047 396.12305 930.7 405 927.45 414.35 921.25 421.95 922.0582 422.92773 922.825 423.95 927.87363 430.68184  930.7 438.9 934.05 448.25 934.05 458.05L934.05 516.05 890.8 516.05 890.8 461.55 890.8 458.05Q890.8 452.15 886.3 447.8 882.05 443.75 876.05 443.75L789.6 443.75ZM782 516.05 736.45 516.05 736.45 510.7 782 510.7ZM782 396.05 782 400.05 782 416.3  736.45 416.3 736.45 383.55 782 383.55ZM782 505.9 736.45 505.9 736.45 471.85 782 471.85ZM736.45 428.2 782 428.2 782 462.75 736.45 462.75ZM654.6 525.9 654.6 557.05 691.7 557.05 691.7 562 615.65 562 615.65 556.95 650.55 556.95 650.55 519 680.1  489.65 683.3 493.2 681.4 495.1 654.6 521.9ZM672.8 573.8 655.2 573.8 655.2 577.8 655.2 615.3 659.45 616.2Q662.2 617.35 664.65 619.8 669.6 624.75 669.6 631.65 669.6 632.67109 669.5 633.65 668.86758 639.28984 664.65 643.55 659.65 648.5 652.75  648.5 645.85 648.5 640.9 643.55 636.68262 639.29004 636.05 633.65 635.95 632.67109 635.95 631.65 635.95 624.75 640.9 619.8 643.65 617 647 615.85L650 615.3 650 578 650 574 632.7 574 632.7 569.15 672.8 569.15ZM642.775 634Q643.34883 636.89883  645.6 639.15 648.6 642.15 652.75 642.15 656.9 642.15 659.9 639.15 662.15117 636.89883 662.725 634 662.9 633.03594 662.9 632 662.9 627.85 659.9 624.85 656.9 621.85 652.75 621.85 648.6 621.85 645.6 624.85 642.6 627.85 642.6 632 642.6 633.03594  642.775 634ZM626.7 540.65 626.7 543 624.05 543 624.05 540.65 624.05 538 624.05 536.65 617.85 536.65 617.85 534 624.05 534 624.05 527.65 626.7 527.65 626.7 534 633.05 534 633.05 536.65 626.7 536.65 626.7 538Z" fill="#FF0000" fill-opacity="1"/><path d="M1400.1 251.9 1403.35 248.8 1406.45 251.9 1406.45 269.3 1403.35 272.45 1400.1 269.3ZM1381.9 276.45 1381.9 293.9 1378.8 297 1375.55 293.9 1375.55 276.45 1378.8 273.35ZM1363.25 273.25 1366.35 276.35 1366.35 293.75 1363.25 296.9 1360.1 293.75 1360.1  276.35ZM1342.25 276.15 1339 273 1342.25 269.8 1359.55 269.8 1362.75 273 1359.55 276.15ZM1363.25 248.8 1366.35 251.9 1366.35 269.3 1363.25 272.45 1360.1 269.3 1360.1 251.9Z" fill="#330000" fill-opacity="1"/><path d="M1483.6 746.95 1483.6 751.05Q1483.7004 755.27305 1485.4 759.05 1487.1 763.05 1490.05 766 1492.95 768.95 1497 770.65 1500.95 772.45 1505.4 772.45L1541.6 772.45 1541.6 786.2 1541.6 792.2 1541.6 794.1 1505.4 794.1Q1496.3 794.1 1488.45 790.7 1480.55  787.25 1474.65 781.4 1468.75 775.5 1465.35 767.6 1462.1375 760.08848 1461.95 751.55L1461.95 743.45Q1461.95 734.5 1465.35 726.5 1468.75 718.5 1474.65 712.6 1480.55 706.75 1488.45 703.3 1496.3 699.9 1505.4 699.9L1541.6 699.9 1541.6 721.55 1505.4  721.55Q1500.95 721.55 1497 723.35 1492.95 725.05 1490.05 728 1487.1 730.95 1485.4 734.95 1483.6 738.95 1483.6 743.45ZM1358.05 786.2 1358.05 792.2 1358.05 794.1 1336.35 794.1 1336.35 792.2 1336.35 700.05 1358.05 700.05 1358.05 736.15 1401.6  736.15Q1404.55 736.15 1406.7 734 1408.8061 732.0375 1408.9 729.25L1408.9 700.05 1430.55 700.05 1430.55 729.5Q1430.4641 734.18535 1428.85 738.6 1427.2 743.3 1424.15 747.05 1424.9332 748.02578 1425.625 749.05 1427.6236 752.05703 1428.85 755.55  1430.55 760.2 1430.55 765.1L1430.55 786.2 1430.55 792.2 1430.55 794.1 1408.9 794.1 1408.9 792.2 1408.9 786.2 1408.9 768.85 1408.9 765.1Q1408.9 762.2 1406.7 760.05 1404.55 757.95 1401.6 757.95L1358.05 757.95 1358.05 761.95ZM372.2 792.2 372.2  794.1 350.5 794.1 350.5 792.2 350.5 700.05 372.2 700.05 372.2 736.15 415.75 736.15Q418.7 736.15 420.85 734 422.95625 732.0375 423.05 729.25L423.05 700.05 444.7 700.05 444.7 729.5Q444.61406 734.18535 443 738.6 441.35 743.3 438.3 747.05 439.0832  748.02578 439.775 749.05 441.77363 752.05703 443 755.55 444.7 760.2 444.7 765.1L444.7 792.2 444.7 794.1 423.05 794.1 423.05 792.2 423.05 768.85 423.05 765.1Q423.05 762.2 420.85 760.05 418.7 757.95 415.75 757.95L372.2 757.95 372.2 761.95ZM548.5  725.7 548.5 721.7 519.5 721.7Q515 721.7 511.1 723.5 507.1 725.2 504.2 728.15 501.25 731.05 499.55 735.05 497.75 738.95 497.75 743.4L497.75 746.9 497.75 750.7 548.5 750.7ZM497.75 792.2 497.75 794.1 476.1 794.1 476.1 792.2 476.1 743.45Q476.1  734.5 479.5 726.55 482.9 718.65 488.8 712.7 494.7 706.75 502.6 703.3 510.55 699.9 519.5 699.9L570.3 699.9 570.3 792.2 570.3 794.1 548.5 794.1 548.5 792.2 548.5 776.35 548.5 772.35 497.75 772.35 497.75 776.35ZM622.525 748.95Q622.90449 752.00703  624.15 754.8 625.85 758.85 628.8 761.75 631.75 764.7 635.7 766.5 639.75 768.2 644.2 768.2L644.2 729.8 644.2 725.8Q639.75 725.8 635.7 727.5 631.75 729.3 628.8 732.25 625.85 735.15 624.15 739.05 622.5 742.85 622.35 746.95 622.38672 747.96738  622.525 748.95ZM644.2 793.95 644.2 789.95Q635.1 789.95 627.15 786.45 619.3 783.05 613.4 777.15 607.55 771.25 604.1 763.25 601.13887 756.6207 600.725 749.05 600.66152 748.05996 600.65 747.05 600.75 738.4 604.1 730.65 607.55 722.75 613.4 716.85  619.3 710.9 627.15 707.5 635.1 704.05 644.2 704.05L644.2 695.65 666.05 695.65 666.05 704.05Q675.15 704.05 683 707.5 690.95 710.9 696.8 716.85 702.7 722.75 706.2 730.65 709.45 738.4 709.6 747.05 709.58262 748.05996 709.525 749.05 709.07266 756.6207  706.2 763.25 702.7 771.25 696.8 777.15 690.95 783.05 683 786.45 675.15 789.95 666.05 789.95L666.05 793.95 666.05 798.25 644.2 798.25ZM761.8 761.95 761.8 772.45 827.05 772.45 827.05 792.2 827.05 794.1 739.95 794.1 739.95 792.2 739.95 699.9 827.05  699.9 827.05 721.7 761.8 721.7 761.8 725.7 761.8 736.15 818.2 736.15 818.2 757.95 761.8 757.95ZM936.05 725.55 936.05 721.55 914.35 721.55Q909.85 721.55 905.9 723.3 901.85 724.9 898.9 727.85 896 730.8 894.25 734.85 892.5 738.8 892.5 743.3L892.5  746.8 892.5 772.45 936.05 772.45ZM882.7 808.65 861 808.65 861 792.2 861 772.45 870.8 772.45 870.8 743.3Q870.8 734.35 874.25 726.4 877.65 718.5 883.6 712.6 889.55 706.75 897.5 703.3 905.35 699.9 914.35 699.9L957.7 699.9 957.7 772.45 967.55 772.45  967.55 792.2 967.55 808.65 945.8 808.65 945.8 798.1 945.8 794.1 882.7 794.1 882.7 798.1ZM1001.05 794.1 1001.05 792.2 1001.05 699.9 1066.3 699.9Q1072.3 699.9 1077.55 702.25 1082.85 704.55 1086.75 708.45 1090.6 712.35 1092.95 717.6 1095.25 722.85  1095.25 728.9L1095.25 736.75Q1095.1057 742.32949 1092.95 747.25 1090.6 752.55 1086.75 756.5 1082.85 760.45 1077.55 762.8 1072.3 765.1 1066.3 765.1L1022.75 765.1 1022.75 769.1 1022.75 792.2 1022.75 794.1ZM1147.75 794.1 1126.1 794.1 1126.1 792.2  1126.1 743.45Q1126.1 734.5 1129.5 726.55 1132.9 718.65 1138.8 712.7 1144.7 706.75 1152.6 703.3 1160.55 699.9 1169.5 699.9L1220.3 699.9 1220.3 792.2 1220.3 794.1 1198.5 794.1 1198.5 792.2 1198.5 776.35 1198.5 772.35 1147.75 772.35 1147.75 776.35  1147.75 792.2ZM666.05 729.8 666.05 768.2Q670.5 768.2 674.55 766.5 678.5 764.7 681.45 761.75 684.4 758.85 686.2 754.8 687.36992 752.00703 687.725 748.95 687.82539 747.96738 687.85 746.95 687.75 742.85 686.2 739.05 684.4 735.15 681.45 732.25  678.5 729.3 674.55 727.5 670.5 725.8 666.05 725.8ZM1022.75 725.55 1022.75 743.3 1066.3 743.3Q1069.25 743.3 1071.4 741.1 1073.5062 739.0416 1073.6 736.25L1073.6 732.65 1073.6 728.9Q1073.6 725.95 1071.4 723.75 1069.25 721.55 1066.3 721.55L1022.75  721.55ZM1147.75 746.9 1147.75 750.7 1198.5 750.7 1198.5 725.7 1198.5 721.7 1169.5 721.7Q1165 721.7 1161.1 723.5 1157.1 725.2 1154.2 728.15 1151.25 731.05 1149.55 735.05 1147.75 738.95 1147.75 743.4Z" fill="#FFFFFF" fill-opacity="1"/><path d="M1114.8 510.15 1114.8 480.15 1120.55 480.15 1120.55 504.15 1120.55 508.15 1185.35 508.15 1209.475 480.15 1213.7 480.15 1187.8 509 1120.55 509 1120.55 510.15ZM666.05 798.25 666.05 793.95Q672.48418 793.95 678.3 792.2L739.95 792.2 739.95 794.1  739.95 798.1 827.05 798.1 827.05 794.1 827.05 792.2 861 792.2 861 808.65 861 812.65 882.7 812.65 882.7 808.65 882.7 798.1 945.8 798.1 945.8 808.65 945.8 812.65 967.55 812.65 967.55 808.65 967.55 792.2 1001.05 792.2 1001.05 794.1 1001.05 798.1  1022.75 798.1 1022.75 794.1 1022.75 792.2 1126.1 792.2 1126.1 794.1 1126.1 798.1 1147.75 798.1 1147.75 794.1 1147.75 792.2 1198.5 792.2 1198.5 794.1 1198.5 798.1 1220.3 798.1 1220.3 794.1 1220.3 792.2 1336.35 792.2 1336.35 794.1 1336.35 798.1  1358.05 798.1 1358.05 794.1 1358.05 792.2 1408.9 792.2 1408.9 794.1 1408.9 798.1 1430.55 798.1 1430.55 794.1 1430.55 792.2 1483.525 792.2Q1485.8791 793.57734 1488.45 794.7 1496.3 798.1 1505.4 798.1L1541.6 798.1 1541.6 794.1 1541.6 792.2 1550.4  792.2 1550.4 818.2 1350.35 818.2 348.1 818.2 348.1 792.2 350.5 792.2 350.5 794.1 350.5 798.1 372.2 798.1 372.2 794.1 372.2 792.2 423.05 792.2 423.05 794.1 423.05 798.1 444.7 798.1 444.7 794.1 444.7 792.2 476.1 792.2 476.1 794.1 476.1 798.1  497.75 798.1 497.75 794.1 497.75 792.2 548.5 792.2 548.5 794.1 548.5 798.1 570.3 798.1 570.3 794.1 570.3 792.2 631.9 792.2Q637.76582 793.95 644.2 793.95L644.2 798.25 644.2 802.25 666.05 802.25ZM838.2 400.05 789.6 400.05 789.6 396.05 789.6 358.1  782 358.1 782 338.1 838.2 338.1ZM479.225 400.05 481.8 400.05 502.55 420.3 782 420.3 782 416.3 782 400.05 789.6 400.05 789.6 428.1 582.175 428.1 576.35 421.6 501.15 421.6Z" fill="#8BD8D8" fill-opacity="1"/><path d="M1055 490.8 1055 492.55Q1055.4 492.1 1056 492.1 1056.3 492.1 1056.6 492.25 1056.9 492.35 1057.1 492.6 1057.3 492.85 1057.4 493.2 1057.5 493.5 1057.5 493.9 1057.5 494.85 1057.05 495.35 1056.6 495.85 1055.95 495.85 1055.3 495.85 1054.95 495.3 L1054.95 495.75 1054.4 495.75 1054.4 490.8ZM1054.95 493.95Q1054.95 494.6 1055.15 494.85 1055.4 495.35 1055.9 495.35 1056.3 495.35 1056.6 495 1056.9 494.65 1056.9 493.95 1056.9 493.25 1056.6 492.9 1056.35 492.6 1055.95 492.6 1055.55 492.6 1055.25  492.95 1054.95 493.3 1054.95 493.95ZM1059.65 492.15 1060.4 494.25Q1060.55 494.65 1060.65 495.05 1060.75 494.65 1060.9 494.25L1061.7 492.15 1062.3 492.15 1060.95 495.8Q1060.7 496.4 1060.6 496.6 1060.45 496.9 1060.2 497.05 1060 497.2 1059.7 497.2  1059.55 497.2 1059.35 497.15L1059.25 496.55Q1059.45 496.6 1059.6 496.6 1059.8 496.6 1059.95 496.55 1060.05 496.5 1060.15 496.35 1060.2 496.25 1060.3 495.9 1060.35 495.85 1060.35 495.75L1059 492.15ZM1067.75 492.9 1070.1 492.9 1070.1 493.5 1067.75  493.5 1067.75 495.75 1067.1 495.75 1067.1 490.8 1070.45 490.8 1070.45 491.4 1067.75 491.4ZM1072.35 491.5 1072.35 490.8 1072.95 490.8 1072.95 491.5ZM1072.95 492.15 1072.95 495.75 1072.35 495.75 1072.35 492.15ZM1078.25 492.15 1078.25 495.75 1077.65  495.75 1077.65 492.15ZM1077.65 490.8 1078.25 490.8 1078.25 491.5 1077.65 491.5ZM1075.6 490.8 1075.6 495.75 1075 495.75 1075 490.8ZM1083.05 492.5Q1083.2 492.7 1083.25 492.95 1083.25 493.15 1083.25 493.55L1083.25 495.75 1082.65 495.75 1082.65  493.55Q1082.65 493.2 1082.6 493 1082.5 492.85 1082.35 492.75 1082.15 492.6 1081.9 492.6 1081.5 492.6 1081.25 492.85 1080.95 493.1 1080.95 493.8L1080.95 495.75 1080.35 495.75 1080.35 492.15 1080.9 492.15 1080.9 492.7Q1081.3 492.1 1082.05 492.1  1082.35 492.1 1082.65 492.2 1082.9 492.3 1083.05 492.5ZM1090.65 493.7 1090.1 492.35Q1089.9 491.75 1089.75 491.35 1089.7 491.8 1089.5 492.25L1088.95 493.7ZM1090.15 490.8 1092.15 495.75 1091.4 495.75 1090.85 494.25 1088.8 494.25 1088.25 495.75  1087.55 495.75 1089.45 490.8ZM1097.85 490.9 1097.85 492.15 1098.5 492.15 1098.5 492.65 1097.85 492.65 1097.85 494.75Q1097.85 495 1097.9 495.05 1097.95 495.15 1098 495.2 1098.1 495.25 1098.2 495.25 1098.3 495.25 1098.5 495.2L1098.55 495.75Q1098.3  495.8 1098.1 495.8 1097.8 495.8 1097.6 495.7 1097.4 495.6 1097.35 495.4 1097.25 495.25 1097.25 494.7L1097.25 492.65 1096.8 492.65 1096.8 492.15 1097.25 492.15 1097.25 491.3ZM1095.65 492.3 1095.45 492.85Q1095.2 492.7 1095 492.7 1094.8 492.7  1094.65 492.85 1094.45 492.95 1094.4 493.15 1094.3 493.5 1094.3 493.9L1094.3 495.75 1093.7 495.75 1093.7 492.15 1094.25 492.15 1094.25 492.7Q1094.45 492.35 1094.65 492.2 1094.8 492.1 1095 492.1 1095.35 492.1 1095.65 492.3ZM1100.65 493.6 1102.65  493.6Q1102.6 493.15 1102.45 492.95 1102.15 492.6 1101.7 492.6 1101.25 492.6 1101 492.85 1100.7 493.15 1100.65 493.6ZM1100.45 492.6Q1100.95 492.1 1101.65 492.1 1102.4 492.1 1102.85 492.6 1103.3 493.05 1103.3 493.95 1103.3 494 1103.3 494.1L1100.65  494.1Q1100.65 494.7 1100.95 495 1101.25 495.35 1101.7 495.35 1102.05 495.35 1102.3 495.15 1102.5 495 1102.65 494.6L1103.3 494.7Q1103.15 495.2 1102.75 495.55 1102.35 495.85 1101.7 495.85 1100.9 495.85 1100.45 495.35 1100 494.85 1100 494 1100  493.1 1100.45 492.6ZM1105.75 492.15 1105.75 492.65Q1105.9 492.4 1106.2 492.25 1106.5 492.1 1106.85 492.1 1107.25 492.1 1107.5 492.25 1107.75 492.4 1107.85 492.7 1108.25 492.1 1108.95 492.1 1109.5 492.1 1109.75 492.4 1110.05 492.7 1110.05 493.3 L1110.05 495.75 1109.45 495.75 1109.45 493.5Q1109.45 493.15 1109.4 492.95 1109.35 492.8 1109.2 492.7 1109 492.6 1108.8 492.6 1108.45 492.6 1108.2 492.85 1107.95 493.1 1107.95 493.65L1107.95 495.75 1107.35 495.75 1107.35 493.4Q1107.35 493 1107.2  492.8 1107.05 492.6 1106.7 492.6 1106.45 492.6 1106.25 492.75 1106 492.9 1105.9 493.15 1105.8 493.4 1105.8 493.9L1105.8 495.75 1105.2 495.75 1105.2 492.15ZM1021.05 491.3Q1020.5 491.3 1020.1 491.55 1019.75 491.85 1019.55 492.3 1019.4 492.75  1019.4 493.25 1019.4 493.85 1019.6 494.35 1019.8 494.8 1020.15 495.05 1020.55 495.25 1021 495.25 1021.55 495.25 1021.95 494.95 1022.3 494.65 1022.45 494L1023.1 494.2Q1022.9 495 1022.35 495.4 1021.85 495.85 1021.05 495.85 1020.25 495.85 1019.75  495.5 1019.25 495.2 1019 494.55 1018.75 493.95 1018.75 493.25 1018.75 492.45 1019.05 491.9 1019.35 491.3 1019.9 491.05 1020.4 490.75 1021.1 490.75 1021.8 490.75 1022.3 491.1 1022.85 491.5 1023.05 492.15L1022.4 492.3Q1022.2 491.8 1021.9 491.55  1021.55 491.3 1021.05 491.3ZM1026.7 492.85Q1026.45 492.7 1026.25 492.7 1026.05 492.7 1025.9 492.85 1025.7 492.95 1025.65 493.15 1025.55 493.5 1025.55 493.9L1025.55 495.75 1024.95 495.75 1024.95 492.15 1025.5 492.15 1025.5 492.7Q1025.7 492.35  1025.9 492.2 1026.05 492.1 1026.25 492.1 1026.6 492.1 1026.9 492.3ZM1029.2 492.85Q1028.9 493.15 1028.85 493.6L1030.85 493.6Q1030.8 493.15 1030.65 492.95 1030.35 492.6 1029.9 492.6 1029.45 492.6 1029.2 492.85ZM1029.85 492.1Q1030.6 492.1 1031.05  492.6 1031.5 493.05 1031.5 493.95 1031.5 494 1031.5 494.1L1028.85 494.1Q1028.85 494.7 1029.15 495 1029.45 495.35 1029.9 495.35 1030.25 495.35 1030.5 495.15 1030.7 495 1030.85 494.6L1031.5 494.7Q1031.35 495.2 1030.95 495.55 1030.55 495.85 1029.9  495.85 1029.1 495.85 1028.65 495.35 1028.2 494.85 1028.2 494 1028.2 493.1 1028.65 492.6 1029.15 492.1 1029.85 492.1ZM1034.15 492.75Q1033.95 492.9 1033.85 493.25L1033.25 493.2Q1033.35 492.8 1033.5 492.6 1033.7 492.35 1034.05 492.2 1034.4 492.1  1034.85 492.1 1035.35 492.1 1035.6 492.2 1035.9 492.3 1036.05 492.45 1036.15 492.65 1036.2 492.9 1036.25 493.05 1036.25 493.45L1036.25 494.25Q1036.25 495.1 1036.3 495.3 1036.35 495.55 1036.45 495.75L1035.8 495.75Q1035.7 495.55 1035.7 495.3  1035.35 495.6 1035.05 495.7 1034.75 495.85 1034.35 495.85 1033.8 495.85 1033.45 495.55 1033.15 495.25 1033.15 494.8 1033.15 494.55 1033.25 494.35 1033.4 494.1 1033.6 494 1033.8 493.85 1034 493.8 1034.2 493.75 1034.55 493.7 1035.3 493.6 1035.65  493.5 1035.65 493.35 1035.65 493.3 1035.65 492.95 1035.45 492.8 1035.25 492.6 1034.8 492.6 1034.35 492.6 1034.15 492.75ZM1033.8 494.8Q1033.8 495.05 1034 495.2 1034.15 495.35 1034.5 495.35 1034.85 495.35 1035.15 495.2 1035.4 495.05 1035.55 494.8  1035.65 494.6 1035.65 494.2L1035.65 493.95Q1035.3 494.1 1034.65 494.2 1034.25 494.25 1034.1 494.3 1033.95 494.35 1033.9 494.5 1033.8 494.65 1033.8 494.8ZM1039.05 490.9 1039.05 492.15 1039.7 492.15 1039.7 492.65 1039.05 492.65 1039.05 494.75 Q1039.05 495 1039.1 495.05 1039.15 495.15 1039.2 495.2 1039.3 495.25 1039.4 495.25 1039.5 495.25 1039.7 495.2L1039.75 495.75Q1039.5 495.8 1039.3 495.8 1039 495.8 1038.8 495.7 1038.6 495.6 1038.55 495.4 1038.45 495.25 1038.45 494.7L1038.45 492.65  1038 492.65 1038 492.15 1038.45 492.15 1038.45 491.3ZM1042.85 492.1Q1043.6 492.1 1044.05 492.6 1044.5 493.05 1044.5 493.95 1044.5 494 1044.5 494.1L1041.85 494.1Q1041.85 494.7 1042.15 495 1042.45 495.35 1042.9 495.35 1043.25 495.35 1043.5 495.15  1043.7 495 1043.85 494.6L1044.5 494.7Q1044.35 495.2 1043.95 495.55 1043.55 495.85 1042.9 495.85 1042.1 495.85 1041.65 495.35 1041.2 494.85 1041.2 494 1041.2 493.1 1041.65 492.6 1042.15 492.1 1042.85 492.1ZM1041.85 493.6 1043.85 493.6Q1043.8  493.15 1043.65 492.95 1043.35 492.6 1042.9 492.6 1042.45 492.6 1042.2 492.85 1041.9 493.15 1041.85 493.6ZM1046.85 492.3Q1047.2 492.1 1047.65 492.1 1047.95 492.1 1048.25 492.25 1048.5 492.35 1048.65 492.6L1048.65 490.8 1049.25 490.8 1049.25  495.75 1048.7 495.75 1048.7 495.3Q1048.35 495.85 1047.7 495.85 1047.25 495.85 1046.9 495.6 1046.55 495.35 1046.35 494.95 1046.15 494.5 1046.15 493.95 1046.15 493.45 1046.3 493 1046.5 492.55 1046.85 492.3ZM1047.05 492.9Q1046.75 493.25 1046.75  493.95 1046.75 494.65 1047.05 495 1047.35 495.35 1047.75 495.35 1048.15 495.35 1048.4 495 1048.7 494.7 1048.7 494 1048.7 493.3 1048.4 492.95 1048.1 492.6 1047.7 492.6 1047.3 492.6 1047.05 492.9ZM1050.15 500.5Q1049.95 500.4 1049.75 500.4 1049.4  500.4 1049.15 500.65 1048.9 500.9 1048.9 501.45L1048.9 503.55 1048.3 503.55 1048.3 501.2Q1048.3 500.8 1048.15 500.6 1048 500.4 1047.65 500.4 1047.4 500.4 1047.2 500.55 1046.95 500.7 1046.85 500.95 1046.75 501.2 1046.75 501.7L1046.75 503.55  1046.15 503.55 1046.15 499.95 1046.7 499.95 1046.7 500.45Q1046.85 500.2 1047.15 500.05 1047.45 499.9 1047.8 499.9 1048.2 499.9 1048.45 500.05 1048.7 500.2 1048.8 500.5 1049.2 499.9 1049.9 499.9 1050.45 499.9 1050.7 500.2 1051 500.5 1051 501.1 L1051 503.55 1050.4 503.55 1050.4 501.3Q1050.4 500.95 1050.35 500.75 1050.3 500.6 1050.15 500.5ZM1043.45 503.4Q1043.1 503.65 1042.6 503.65 1041.85 503.65 1041.4 503.15 1040.95 502.65 1040.95 501.75 1040.95 500.75 1041.5 500.3 1041.95 499.9 1042.6  499.9 1043.35 499.9 1043.8 500.4 1044.3 500.85 1044.3 501.7 1044.3 502.4 1044.1 502.8 1043.85 503.2 1043.45 503.4ZM1043.65 501.75Q1043.65 501.1 1043.35 500.75 1043.05 500.4 1042.6 500.4 1042.15 500.4 1041.85 500.75 1041.55 501.05 1041.55 501.75  1041.55 502.45 1041.85 502.8 1042.15 503.15 1042.6 503.15 1043.05 503.15 1043.35 502.8 1043.65 502.45 1043.65 501.75ZM1047.8 506.35 1046.4 511.45 1045.9 511.45 1047.35 506.35ZM1044.75 506.35 1043.35 511.45 1042.85 511.45 1044.3 506.35ZM1052.3  506.4 1052.3 511.35 1051.75 511.35 1051.75 510.9Q1051.4 511.45 1050.75 511.45 1050.3 511.45 1049.95 511.2 1049.6 510.95 1049.4 510.55 1049.2 510.1 1049.2 509.55 1049.2 509.05 1049.35 508.6 1049.55 508.15 1049.9 507.9 1050.25 507.7 1050.7 507.7  1051 507.7 1051.3 507.85 1051.55 507.95 1051.7 508.2L1051.7 506.4ZM1039.5 501 1038.9 501.1Q1038.8 500.75 1038.6 500.55 1038.4 500.4 1038.05 500.4 1037.6 500.4 1037.35 500.7 1037.05 501.05 1037.05 501.75 1037.05 502.5 1037.3 502.8 1037.6 503.15  1038.05 503.15 1038.4 503.15 1038.65 502.9 1038.9 502.7 1038.95 502.25L1039.55 502.3Q1039.45 502.95 1039.05 503.3 1038.65 503.65 1038.05 503.65 1037.3 503.65 1036.85 503.15 1036.4 502.65 1036.4 501.75 1036.4 501.2 1036.6 500.75 1036.8 500.35  1037.2 500.1 1037.6 499.9 1038.05 499.9 1038.65 499.9 1039 500.2 1039.35 500.5 1039.5 501ZM1033.75 502.85 1034.4 502.85 1034.4 503.55 1033.75 503.55ZM1041.05 507.75 1041.05 508.45 1040.35 508.45 1040.35 507.75ZM1038.4 510.3Q1038.4 510.6 1038.2  510.85 1038.05 511.15 1037.7 511.3 1037.35 511.45 1036.95 511.45 1036.25 511.45 1035.9 511.15 1035.5 510.85 1035.4 510.3L1036 510.2Q1036.05 510.55 1036.3 510.75 1036.5 510.95 1036.95 510.95 1037.35 510.95 1037.55 510.75 1037.75 510.6 1037.75  510.35 1037.75 510.15 1037.6 510.05 1037.45 509.95 1036.95 509.85 1036.3 509.65 1036.05 509.55 1035.8 509.4 1035.65 509.2 1035.5 509 1035.5 508.7 1035.5 508.5 1035.6 508.3 1035.75 508.05 1035.9 507.95 1036.05 507.85 1036.3 507.75 1036.55 507.7  1036.85 507.7 1037.25 507.7 1037.55 507.8 1037.9 507.95 1038.05 508.15 1038.2 508.35 1038.25 508.7L1037.65 508.8Q1037.6 508.5 1037.4 508.35 1037.25 508.2 1036.85 508.2 1036.45 508.2 1036.3 508.35 1036.1 508.45 1036.1 508.65 1036.1 508.75 1036.15  508.85 1036.25 508.95 1036.4 509 1036.5 509.05 1036.95 509.2 1037.6 509.35 1037.85 509.45 1038.1 509.55 1038.25 509.8 1038.4 510 1038.4 510.3ZM1040.35 510.65 1041.05 510.65 1041.05 511.35 1040.35 511.35ZM1032.85 508.5Q1032.6 508.15 1032.2 508.15  1031.8 508.15 1031.5 508.55 1031.2 508.9 1031.2 509.6 1031.2 510.25 1031.5 510.6 1031.75 510.95 1032.15 510.95 1032.55 510.95 1032.85 510.6 1033.15 510.25 1033.15 509.55 1033.15 508.85 1032.85 508.5ZM1033.75 509.55Q1033.75 510.1 1033.55 510.5  1033.35 510.95 1033 511.2 1032.6 511.45 1032.2 511.45 1031.9 511.45 1031.65 511.3 1031.4 511.15 1031.25 511L1031.25 512.7 1030.65 512.7 1030.65 507.75 1031.2 507.75 1031.2 508.25Q1031.4 507.95 1031.65 507.85 1031.9 507.7 1032.25 507.7 1032.7  507.7 1033.05 507.95 1033.4 508.15 1033.6 508.6 1033.75 509 1033.75 509.55ZM1051.45 508.55Q1051.15 508.2 1050.75 508.2 1050.35 508.2 1050.1 508.5 1049.8 508.85 1049.8 509.55 1049.8 510.25 1050.1 510.6 1050.4 510.95 1050.8 510.95 1051.2 510.95  1051.45 510.6 1051.75 510.3 1051.75 509.6 1051.75 508.9 1051.45 508.55ZM1031.8 499.95 1030.4 501.3 1031.9 503.55 1031.2 503.55 1030 501.7 1029.55 502.15 1029.55 503.55 1028.95 503.55 1028.95 498.6 1029.55 498.6 1029.55 501.45 1031 499.95ZM1024.65  499.95 1025.4 502.1Q1025.5 502.45 1025.65 502.85 1025.7 502.55 1025.85 502.15L1026.65 499.95 1027.25 499.95 1025.9 503.55 1025.35 503.55 1024 499.95ZM1025.25 506.5 1025.25 507.75 1025.9 507.75 1025.9 508.25 1025.25 508.25 1025.25 510.35Q1025.25  510.6 1025.3 510.65 1025.35 510.75 1025.4 510.8 1025.5 510.85 1025.6 510.85 1025.7 510.85 1025.9 510.8L1025.95 511.35Q1025.7 511.4 1025.5 511.4 1025.2 511.4 1025 511.3 1024.8 511.2 1024.75 511 1024.65 510.85 1024.65 510.3L1024.65 508.25 1024.2  508.25 1024.2 507.75 1024.65 507.75 1024.65 506.9ZM1028.3 506.5 1028.3 507.75 1028.95 507.75 1028.95 508.25 1028.3 508.25 1028.3 510.35Q1028.3 510.6 1028.35 510.65 1028.4 510.75 1028.45 510.8 1028.55 510.85 1028.65 510.85 1028.75 510.85 1028.95  510.8L1029 511.35Q1028.75 511.4 1028.55 511.4 1028.25 511.4 1028.05 511.3 1027.85 511.2 1027.8 511 1027.7 510.85 1027.7 510.3L1027.7 508.25 1027.25 508.25 1027.25 507.75 1027.7 507.75 1027.7 506.9ZM1020.2 506.4 1020.2 508.2Q1020.65 507.7 1021.3  507.7 1021.7 507.7 1021.95 507.85 1022.25 508 1022.4 508.3 1022.5 508.55 1022.5 509.1L1022.5 511.35 1021.9 511.35 1021.9 509.1Q1021.9 508.65 1021.7 508.4 1021.5 508.2 1021.15 508.2 1020.9 508.2 1020.65 508.35 1020.4 508.5 1020.3 508.75 1020.2  508.95 1020.2 509.4L1020.2 511.35 1019.6 511.35 1019.6 506.4ZM1104.8 499.95 1103.55 501.65 1104.9 503.55 1104.15 503.55 1103.4 502.45 1103.25 502.15 1102.3 503.55 1101.55 503.55 1102.85 501.7 1101.65 499.95 1102.4 499.95 1102.95 500.8Q1103.1  501.05 1103.2 501.2 1103.35 501 1103.5 500.8L1104.1 499.95ZM1099.1 500.6Q1098.9 500.4 1098.45 500.4 1098 500.4 1097.8 500.55 1097.6 500.7 1097.5 501.05L1096.9 501Q1097 500.6 1097.15 500.4 1097.35 500.15 1097.7 500 1098.05 499.9 1098.5 499.9  1099 499.9 1099.25 500 1099.55 500.1 1099.7 500.25 1099.8 500.45 1099.85 500.7 1099.9 500.85 1099.9 501.25L1099.9 502.05Q1099.9 502.9 1099.95 503.1 1100 503.35 1100.1 503.55L1099.45 503.55Q1099.35 503.35 1099.35 503.1 1099 503.4 1098.7 503.5  1098.4 503.65 1098 503.65 1097.45 503.65 1097.1 503.35 1096.8 503.05 1096.8 502.6 1096.8 502.35 1096.9 502.15 1097.05 501.9 1097.25 501.8 1097.45 501.65 1097.65 501.6 1097.85 501.55 1098.2 501.5 1098.95 501.4 1099.3 501.3 1099.3 501.15 1099.3  501.1 1099.3 500.75 1099.1 500.6ZM1094.65 500.2Q1094.95 500.5 1094.95 501.1L1094.95 503.55 1094.35 503.55 1094.35 501.3Q1094.35 500.95 1094.3 500.75 1094.25 500.6 1094.1 500.5 1093.9 500.4 1093.7 500.4 1093.35 500.4 1093.1 500.65 1092.85 500.9  1092.85 501.45L1092.85 503.55 1092.25 503.55 1092.25 501.2Q1092.25 500.8 1092.1 500.6 1091.95 500.4 1091.6 500.4 1091.35 500.4 1091.15 500.55 1090.9 500.7 1090.8 500.95 1090.7 501.2 1090.7 501.7L1090.7 503.55 1090.1 503.55 1090.1 499.95 1090.65  499.95 1090.65 500.45Q1090.8 500.2 1091.1 500.05 1091.4 499.9 1091.75 499.9 1092.15 499.9 1092.4 500.05 1092.65 500.2 1092.75 500.5 1093.15 499.9 1093.85 499.9 1094.4 499.9 1094.65 500.2ZM1097.45 502.6Q1097.45 502.85 1097.65 503 1097.8 503.15  1098.15 503.15 1098.5 503.15 1098.8 503 1099.05 502.85 1099.2 502.6 1099.3 502.4 1099.3 502L1099.3 501.75Q1098.95 501.9 1098.3 502 1097.9 502.05 1097.75 502.1 1097.6 502.15 1097.55 502.3 1097.45 502.45 1097.45 502.6ZM1103.45 508.3Q1103.65 507.95  1103.85 507.8 1104 507.7 1104.2 507.7 1104.55 507.7 1104.85 507.9L1104.65 508.45Q1104.4 508.3 1104.2 508.3 1104 508.3 1103.85 508.45 1103.65 508.55 1103.6 508.75 1103.5 509.1 1103.5 509.5L1103.5 511.35 1102.9 511.35 1102.9 507.75 1103.45 507.75Z M1100.7 510.65 1100.7 511.35 1100.05 511.35 1100.05 510.65ZM1096.55 509.95 1095.6 511.35 1094.85 511.35 1096.15 509.5 1094.95 507.75 1095.7 507.75 1096.25 508.6Q1096.4 508.85 1096.5 509 1096.65 508.8 1096.8 508.6L1097.4 507.75 1098.1 507.75  1096.85 509.45 1098.2 511.35 1097.45 511.35 1096.7 510.25ZM1108.7 511.35 1108.7 510.8Q1108.3 511.45 1107.55 511.45 1107.25 511.45 1106.95 511.3 1106.7 511.2 1106.55 511 1106.45 510.8 1106.4 510.55 1106.35 510.4 1106.35 510L1106.35 507.75 1106.95  507.75 1106.95 509.75Q1106.95 510.25 1107 510.4 1107.05 510.65 1107.25 510.75 1107.4 510.9 1107.7 510.9 1107.95 510.9 1108.2 510.75 1108.45 510.65 1108.55 510.4 1108.65 510.15 1108.65 509.7L1108.65 507.75 1109.25 507.75 1109.25 511.35ZM1086.6  500.4Q1086.15 500.4 1085.85 500.75 1085.55 501.05 1085.55 501.75 1085.55 502.45 1085.85 502.8 1086.15 503.15 1086.6 503.15 1087.05 503.15 1087.35 502.8 1087.65 502.45 1087.65 501.75 1087.65 501.1 1087.35 500.75 1087.05 500.4 1086.6 500.4ZM1087.8  500.4Q1088.3 500.85 1088.3 501.7 1088.3 502.4 1088.1 502.8 1087.85 503.2 1087.45 503.4 1087.1 503.65 1086.6 503.65 1085.85 503.65 1085.4 503.15 1084.95 502.65 1084.95 501.75 1084.95 500.75 1085.5 500.3 1085.95 499.9 1086.6 499.9 1087.35 499.9  1087.8 500.4ZM1081 499.95 1081.55 500.8Q1081.7 501.05 1081.8 501.2 1081.95 501 1082.1 500.8L1082.7 499.95 1083.4 499.95 1082.15 501.65 1083.5 503.55 1082.75 503.55 1082 502.45 1081.85 502.15 1080.9 503.55 1080.15 503.55 1081.45 501.7 1080.25  499.95ZM1076.25 499.95 1077 502.05Q1077.15 502.45 1077.25 502.85 1077.35 502.45 1077.5 502.05L1078.3 499.95 1078.9 499.95 1077.55 503.6Q1077.3 504.2 1077.2 504.4 1077.05 504.7 1076.8 504.85 1076.6 505 1076.3 505 1076.15 505 1075.95 504.95L1075.85  504.35Q1076.05 504.4 1076.2 504.4 1076.4 504.4 1076.55 504.35 1076.65 504.3 1076.75 504.15 1076.8 504.05 1076.9 503.7 1076.95 503.65 1076.95 503.55L1075.6 499.95ZM1073.35 499.95 1073.95 499.95 1073.95 503.05Q1073.95 503.9 1073.75 504.25 1073.6  504.6 1073.2 504.8 1072.85 505 1072.3 505 1071.65 505 1071.25 504.7 1070.9 504.45 1070.9 503.85L1071.5 503.95Q1071.5 504.2 1071.7 504.35 1071.9 504.5 1072.3 504.5 1072.75 504.5 1072.95 504.35 1073.2 504.15 1073.25 503.85 1073.3 503.65 1073.3  503.1 1072.9 503.55 1072.3 503.55 1071.6 503.55 1071.2 503 1070.75 502.5 1070.75 501.75 1070.75 501.25 1070.95 500.8 1071.15 500.35 1071.5 500.15 1071.85 499.9 1072.3 499.9 1072.95 499.9 1073.35 500.4ZM1081.6 509.5Q1081.6 510.2 1081.4 510.6  1081.15 511 1080.75 511.2 1080.4 511.45 1079.9 511.45 1079.15 511.45 1078.7 510.95 1078.25 510.45 1078.25 509.55 1078.25 508.55 1078.8 508.1 1079.25 507.7 1079.9 507.7 1080.65 507.7 1081.1 508.2 1081.6 508.65 1081.6 509.5ZM1078.85 509.55Q1078.85  510.25 1079.15 510.6 1079.45 510.95 1079.9 510.95 1080.35 510.95 1080.65 510.6 1080.95 510.25 1080.95 509.55 1080.95 508.9 1080.65 508.55 1080.35 508.2 1079.9 508.2 1079.45 508.2 1079.15 508.55 1078.85 508.85 1078.85 509.55ZM1076.7 507.75 1075.45  509.45 1076.8 511.35 1076.05 511.35 1075.3 510.25 1075.15 509.95 1074.2 511.35 1073.45 511.35 1074.75 509.5 1073.55 507.75 1074.3 507.75 1074.85 508.6Q1075 508.85 1075.1 509 1075.25 508.8 1075.4 508.6L1076 507.75ZM1093.15 508.5Q1093.2 508.65  1093.2 509.05L1093.2 509.85Q1093.2 510.7 1093.25 510.9 1093.3 511.15 1093.4 511.35L1092.75 511.35Q1092.65 511.15 1092.65 510.9 1092.3 511.2 1092 511.3 1091.7 511.45 1091.3 511.45 1090.75 511.45 1090.4 511.15 1090.1 510.85 1090.1 510.4 1090.1  510.15 1090.2 509.95 1090.35 509.7 1090.55 509.6 1090.75 509.45 1090.95 509.4 1091.15 509.35 1091.5 509.3 1092.25 509.2 1092.6 509.1 1092.6 508.95 1092.6 508.9 1092.6 508.55 1092.4 508.4 1092.2 508.2 1091.75 508.2 1091.3 508.2 1091.1 508.35  1090.9 508.5 1090.8 508.85L1090.2 508.8Q1090.3 508.4 1090.45 508.2 1090.65 507.95 1091 507.8 1091.35 507.7 1091.8 507.7 1092.3 507.7 1092.55 507.8 1092.85 507.9 1093 508.05 1093.1 508.25 1093.15 508.5ZM1091.05 509.9Q1090.9 509.95 1090.85 510.1  1090.75 510.25 1090.75 510.4 1090.75 510.65 1090.95 510.8 1091.1 510.95 1091.45 510.95 1091.8 510.95 1092.1 510.8 1092.35 510.65 1092.5 510.4 1092.6 510.2 1092.6 509.8L1092.6 509.55Q1092.25 509.7 1091.6 509.8 1091.2 509.85 1091.05 509.9ZM1087.15  507.7Q1087.7 507.7 1087.95 508 1088.25 508.3 1088.25 508.9L1088.25 511.35 1087.65 511.35 1087.65 509.1Q1087.65 508.75 1087.6 508.55 1087.55 508.4 1087.4 508.3 1087.2 508.2 1087 508.2 1086.65 508.2 1086.4 508.45 1086.15 508.7 1086.15 509.25 L1086.15 511.35 1085.55 511.35 1085.55 509Q1085.55 508.6 1085.4 508.4 1085.25 508.2 1084.9 508.2 1084.65 508.2 1084.45 508.35 1084.2 508.5 1084.1 508.75 1084 509 1084 509.5L1084 511.35 1083.4 511.35 1083.4 507.75 1083.95 507.75 1083.95 508.25 Q1084.1 508 1084.4 507.85 1084.7 507.7 1085.05 507.7 1085.45 507.7 1085.7 507.85 1085.95 508 1086.05 508.3 1086.45 507.7 1087.15 507.7ZM1068.95 499.95 1068.95 503.05Q1068.95 503.9 1068.75 504.25 1068.6 504.6 1068.2 504.8 1067.85 505 1067.3 505  1066.65 505 1066.25 504.7 1065.9 504.45 1065.9 503.85L1066.5 503.95Q1066.5 504.2 1066.7 504.35 1066.9 504.5 1067.3 504.5 1067.75 504.5 1067.95 504.35 1068.2 504.15 1068.25 503.85 1068.3 503.65 1068.3 503.1 1067.9 503.55 1067.3 503.55 1066.6  503.55 1066.2 503 1065.75 502.5 1065.75 501.75 1065.75 501.25 1065.95 500.8 1066.15 500.35 1066.5 500.15 1066.85 499.9 1067.3 499.9 1067.95 499.9 1068.35 500.4L1068.35 499.95ZM1072.35 500.4Q1071.95 500.4 1071.7 500.7 1071.4 501.05 1071.4 501.7  1071.4 502.4 1071.7 502.7 1071.95 503.05 1072.4 503.05 1072.8 503.05 1073.1 502.75 1073.35 502.4 1073.35 501.7 1073.35 501.05 1073.05 500.75 1072.8 500.4 1072.35 500.4ZM1066.7 500.7Q1066.4 501.05 1066.4 501.7 1066.4 502.4 1066.7 502.7 1066.95  503.05 1067.4 503.05 1067.8 503.05 1068.1 502.75 1068.35 502.4 1068.35 501.7 1068.35 501.05 1068.05 500.75 1067.8 500.4 1067.35 500.4 1066.95 500.4 1066.7 500.7ZM1063.35 503.4Q1063 503.65 1062.5 503.65 1061.75 503.65 1061.3 503.15 1060.85 502.65  1060.85 501.75 1060.85 500.75 1061.4 500.3 1061.85 499.9 1062.5 499.9 1063.25 499.9 1063.7 500.4 1064.2 500.85 1064.2 501.7 1064.2 502.4 1064 502.8 1063.75 503.2 1063.35 503.4ZM1063.55 501.75Q1063.55 501.1 1063.25 500.75 1062.95 500.4 1062.5  500.4 1062.05 500.4 1061.75 500.75 1061.45 501.05 1061.45 501.75 1061.45 502.45 1061.75 502.8 1062.05 503.15 1062.5 503.15 1062.95 503.15 1063.25 502.8 1063.55 502.45 1063.55 501.75ZM1058.35 498.6 1058.95 498.6 1058.95 503.55 1058.4 503.55  1058.4 503.1Q1058.05 503.65 1057.4 503.65 1056.95 503.65 1056.6 503.4 1056.25 503.15 1056.05 502.75 1055.85 502.3 1055.85 501.75 1055.85 501.25 1056 500.8 1056.2 500.35 1056.55 500.1 1056.9 499.9 1057.35 499.9 1057.65 499.9 1057.95 500.05 1058.2  500.15 1058.35 500.4ZM1054.45 498.55 1053.05 503.65 1052.55 503.65 1054 498.55ZM1056.75 500.7Q1056.45 501.05 1056.45 501.75 1056.45 502.45 1056.75 502.8 1057.05 503.15 1057.45 503.15 1057.85 503.15 1058.1 502.8 1058.4 502.5 1058.4 501.8 1058.4  501.1 1058.1 500.75 1057.8 500.4 1057.4 500.4 1057 500.4 1056.75 500.7ZM1061.65 507.75 1062.25 507.75 1062.25 510.85Q1062.25 511.7 1062.05 512.05 1061.9 512.4 1061.5 512.6 1061.15 512.8 1060.6 512.8 1059.95 512.8 1059.55 512.5 1059.2 512.25  1059.2 511.65L1059.8 511.75Q1059.8 512 1060 512.15 1060.2 512.3 1060.6 512.3 1061.05 512.3 1061.25 512.15 1061.5 511.95 1061.55 511.65 1061.6 511.45 1061.6 510.9 1061.2 511.35 1060.6 511.35 1059.9 511.35 1059.5 510.8 1059.05 510.3 1059.05 509.55  1059.05 509.05 1059.25 508.6 1059.45 508.15 1059.8 507.95 1060.15 507.7 1060.6 507.7 1061.25 507.7 1061.65 508.2ZM1060.65 508.2Q1060.25 508.2 1060 508.5 1059.7 508.85 1059.7 509.5 1059.7 510.2 1060 510.5 1060.25 510.85 1060.7 510.85 1061.1  510.85 1061.4 510.55 1061.65 510.2 1061.65 509.5 1061.65 508.85 1061.35 508.55 1061.1 508.2 1060.65 508.2ZM1057.5 509.5Q1057.5 510.2 1057.3 510.6 1057.05 511 1056.65 511.2 1056.3 511.45 1055.8 511.45 1055.05 511.45 1054.6 510.95 1054.15 510.45  1054.15 509.55 1054.15 508.55 1054.7 508.1 1055.15 507.7 1055.8 507.7 1056.55 507.7 1057 508.2 1057.5 508.65 1057.5 509.5ZM1056.55 508.55Q1056.25 508.2 1055.8 508.2 1055.35 508.2 1055.05 508.55 1054.75 508.85 1054.75 509.55 1054.75 510.25 1055.05  510.6 1055.35 510.95 1055.8 510.95 1056.25 510.95 1056.55 510.6 1056.85 510.25 1056.85 509.55 1056.85 508.9 1056.55 508.55ZM1072.2 507.75 1070.85 511.4Q1070.6 512 1070.5 512.2 1070.35 512.5 1070.1 512.65 1069.9 512.8 1069.6 512.8 1069.45 512.8  1069.25 512.75L1069.15 512.15Q1069.35 512.2 1069.5 512.2 1069.7 512.2 1069.85 512.15 1069.95 512.1 1070.05 511.95 1070.1 511.85 1070.2 511.5 1070.25 511.45 1070.25 511.35L1068.9 507.75 1069.55 507.75 1070.3 509.85Q1070.45 510.25 1070.55 510.65  1070.65 510.25 1070.8 509.85L1071.6 507.75ZM1067.25 507.75 1067.25 510.85Q1067.25 511.7 1067.05 512.05 1066.9 512.4 1066.5 512.6 1066.15 512.8 1065.6 512.8 1064.95 512.8 1064.55 512.5 1064.2 512.25 1064.2 511.65L1064.8 511.75Q1064.8 512 1065  512.15 1065.2 512.3 1065.6 512.3 1066.05 512.3 1066.25 512.15 1066.5 511.95 1066.55 511.65 1066.6 511.45 1066.6 510.9 1066.2 511.35 1065.6 511.35 1064.9 511.35 1064.5 510.8 1064.05 510.3 1064.05 509.55 1064.05 509.05 1064.25 508.6 1064.45 508.15  1064.8 507.95 1065.15 507.7 1065.6 507.7 1066.25 507.7 1066.65 508.2L1066.65 507.75ZM1066.35 508.55Q1066.1 508.2 1065.65 508.2 1065.25 508.2 1065 508.5 1064.7 508.85 1064.7 509.5 1064.7 510.2 1065 510.5 1065.25 510.85 1065.7 510.85 1066.1 510.85  1066.4 510.55 1066.65 510.2 1066.65 509.5 1066.65 508.85 1066.35 508.55Z" fill="#0054A5" fill-opacity="1"/></g></g></svg>