<svg viewBox="0 0 1920 1080" xmlns="http://www.w3.org/2000/svg" version="1.1"><g><g transform="translate(41.6,0)"><g><path d="M1076.65 12.5 1076.65 94.95Q1076.6 96.85 1075.25 98.2 1073.9 99.55 1072 99.6L902.8 99.6 902.8 90.6 891.7 90.6 885.85 96.05 885.85 106.3 1102.2 106.3 1002.05 204.05 928.25 204.05 885.15 251.1 828.55 251.1 791.2 293.75 721.55 293.75 721.55 288.45  788.8 288.45 826.7 246.25 882.75 246.25 924.9 199.35 1000.2 199.35 1088.85 112.05 721.55 112.05 721.55 106.3 804.45 106.3 804.45 96.05 891.7 9.25 1073.45 9.25Q1074.65 9.45 1075.55 10.35 1076.45 11.25 1076.65 12.5ZM1062.85 24.25Q1064.5 25.9  1064.5 28.25 1064.5 30.6 1062.85 32.25 1061.2 33.9 1058.85 33.9 1056.5 33.9 1054.85 32.25 1053.2 30.6 1053.2 28.25 1053.2 25.9 1054.85 24.25 1056.5 22.6 1058.85 22.6 1061.2 22.6 1062.85 24.25ZM1072.35 93.5 1072.35 14.7 1038.6 14.7 1038.6 93.5Z M1064.6 22.55Q1062.25 20.2 1058.9 20.2 1055.55 20.2 1053.2 22.55 1050.85 24.9 1050.85 28.25 1050.85 31.6 1053.2 33.95 1055.55 36.3 1058.9 36.3 1062.25 36.3 1064.6 33.95 1066.95 31.6 1066.95 28.25 1066.95 24.9 1064.6 22.55ZM1069.1 90 1041.35  90 1041.35 17.45 1069.1 17.45ZM983.5 31 1000.8 31 1003.9 27.8 1000.8 24.7 983.5 24.7 980.25 27.8ZM976.55 48.9 979.8 52 982.9 48.9 982.9 31.5 979.8 28.35 976.55 31.5ZM983.25 49.25 980.15 52.45 983.25 55.6 1000.65 55.6 1003.75 52.45 1000.65 49.25Z M1004.35 52.7 1001.1 55.8 1001.1 73.2 1004.35 76.35 1007.45 73.2 1007.45 55.8ZM983.25 80 1000.65 80 1003.75 76.9 1000.65 73.65 983.25 73.65 980.15 76.9ZM1034.65 93.6 1034.65 14.75 907.85 14.75 907.85 93.6ZM1028.65 88.55 913.4 88.55 913.4 20.3  1028.65 20.3ZM940.15 27.8 943.35 31 960.65 31 963.9 27.8 960.65 24.7 943.35 24.7ZM1079.3 115.4 1044.45 149.3 721.55 149.3 721.55 115.4ZM1032.25 161.3 998.7 194.05 721.55 194.05 721.55 161.3ZM942.8 31.5 939.7 28.35 936.45 31.5 936.45 48.9 939.7  52 942.8 48.9ZM902.8 14.75 891.7 14.75 810 96.5 810 106.3 815.05 106.3 815.05 96.05 891.7 19.85 902.8 19.85ZM902.8 31.35 902.8 25.35 891.7 25.35 820.6 96.05 820.6 106.3 826.6 106.3 826.6 96.05 891.7 31.35ZM902.8 41.95 902.8 36.9 891.7 36.9  832.1 96.05 832.1 106.3 837.2 106.3 837.2 96.05 891.7 41.95ZM891.7 47.5 842.75 96.05 842.75 106.3 847.55 106.3 847.55 96.05 891.7 52.35 902.8 52.35 902.8 47.5ZM891.7 57.9 853.1 96.05 853.1 106.3 858.15 106.3 858.15 96.05 891.7 62.95 902.8 62.95  902.8 57.9ZM891.7 68.5 863.7 96.05 863.7 106.3 869.7 106.3 869.7 96.05 891.7 74.5 902.8 74.5 902.8 68.5ZM902.8 85.1 902.8 80 891.7 80 875.25 96.05 875.25 106.3 880.3 106.3 880.3 96.05 891.7 85.1ZM936.45 55.9 936.45 73.35 939.7 76.45 942.8 73.35  942.8 55.9 939.7 52.8ZM943.25 80 960.55 80 963.75 76.9 960.55 73.65 943.25 73.65 940 76.9ZM715.8 150.45 643.65 150.45Q634.65 150.45 626.8 153.9 618.75 157.25 612.85 163.25 607 169.15 603.5 177.2 599.95 185.15 599.95 194.25L599.95 197.6 556.6  197.6 556.6 194.25Q556.6 176.15 563.4 160.25 570.3 144.25 582.2 132.45 593.85 120.7 609.65 114 625.4 107.1 643.65 107.1L715.8 107.1ZM808.7 336.5 808.7 331.45 841 331.45 841 331.35 844.8 331.35 844.8 301.6 816.55 273.35 820.6 268.85 849.65 297.9  849.65 331.35 853.45 331.35 853.45 331.45 884.8 331.45 884.8 336.5ZM721.55 283.6 721.55 249.6 815.65 249.6 786.35 283.6ZM715.8 252.15 715.8 295.5 643.65 295.5Q625.4 295.5 609.65 288.55 593.85 281.85 582.2 270 570.3 258.25 563.4 242.35 556.6  226.55 556.6 208.45L556.6 205.35 599.95 205.35 599.95 208.45Q599.95 217.45 603.5 225.4 607 233.45 612.85 239.2 618.75 245.1 626.8 248.55 634.65 252.15 643.65 252.15ZM721.55 240.5 721.55 205.9 912.8 205.9 880.3 240.5ZM834.75 351.6 860.35 351.6  860.35 355.65 834.75 355.65ZM875.35 342.4 875.35 346.8 819.8 346.8 819.8 342.4ZM487.3 175.35Q491.8 171.2 491.8 165.2L491.8 107.45 535.05 107.45 535.05 165.2Q535.05 175.1 531.7 184.45 528.45 193.8 522.25 201.4 528.45 208.9 531.7 218.35 535.05  227.7 535.05 237.5L535.05 295.5 491.8 295.5 491.8 237.5Q491.8 231.6 487.3 227.25 483.05 223.2 477.05 223.2L390.6 223.2 390.6 179.5 477.05 179.5Q483.05 179.5 487.3 175.35ZM383 113.8 339 113.8 339 108.05 383 108.05ZM337 251.3 337 285.35 315.9  285.35 286.6 251.3ZM339 285.35 339 251.3 383 251.3 383 285.35ZM339 295.5 339 290.15 383 290.15 383 295.5ZM337 207.65 337 242.2 221.95 242.2 189.45 207.65ZM383 207.65 383 242.2 339 242.2 339 207.65ZM337 117.15 337 151.05 57.8 151.05 23.1 117.15Z M339 151.05 339 117.15 383 117.15 383 151.05ZM337 163 337 195.75 103.55 195.75 70 163ZM339 195.75 339 163 383 163 383 195.75ZM337 108.05 337 113.8 13.4 113.8 102.15 201.05 177.35 201.05 219.5 248 275.65 248 313.45 290.15 337 290.15 337 295.5  311.05 295.5 273.7 252.8 217.1 252.8 174 205.8 100.2 205.8 0 108.05ZM309.2 4.3 313.35 0Q313.6 0.25 313.8 0.45 333.4 20.05 333.4 47.75 333.4 75.5 313.8 95 313.6 95.25 313.35 95.45L309.1 91.2Q309.3 91.1 309.55 90.85 327.4 73 327.4 47.75 327.4  22.5 309.55 4.75 309.3 4.5 309.2 4.3ZM296.2 17.55 300.8 12.8Q301 13.05 301.15 13.15 315.45 27.45 315.45 47.75 315.45 68.05 301.15 82.3 300.9 82.55 300.7 82.8L296.05 78.05Q296.3 77.8 296.4 77.7 308.85 65.25 308.85 47.75 308.85 30.2 296.4 17.9  296.3 17.75 296.2 17.55ZM284.1 29.85 288.9 24.9Q289.05 25.05 289.15 25.15 298.5 34.5 298.5 47.75 298.5 61 289.15 70.35 288.9 70.55 288.8 70.7L283.85 65.85Q284.1 65.6 284.2 65.5 291.55 58.1 291.55 47.75 291.55 37.35 284.2 30.1 284.1 30 284.1  29.85ZM243.75 25.25 248.7 30.2Q241.55 37.5 241.55 47.75 241.55 58.1 248.8 65.5 248.9 65.5 249.05 65.6L244.05 70.55Q243.95 70.45 243.85 70.35 234.5 61 234.5 47.75 234.5 34.6 243.75 25.25ZM259.3 41.5Q262.3 38.5 266.45 38.5 270.6 38.5 273.6 41.5  276.6 44.5 276.6 48.65 276.6 52.8 273.6 55.8 272.1 57.3 270.25 58.1L270.25 86.6Q274.15 100.3 287.9 104.2L237.05 104.2 237.05 94.9Q237.15 91.45 239.45 89 241.9 86.7 245.35 86.6L263.2 86.6 263.2 58.35Q261 57.55 259.3 55.8 256.3 52.8 256.3 48.65  256.3 44.5 259.3 41.5ZM249.4 94.45Q249.4 92.35 247.9 90.85 246.4 89.35 244.3 89.35 242.25 89.35 240.75 90.85 239.25 92.35 239.25 94.45 239.25 96.5 240.75 98 242.25 99.5 244.3 99.5 246.4 99.5 247.9 98 249.4 96.5 249.4 94.45ZM236.45 17.9Q224.15  30.35 224.15 47.75 224.15 65.25 236.6 77.7 236.7 77.8 236.95 77.95L232.2 82.65Q232.1 82.55 231.85 82.3 217.55 68.05 217.55 47.75 217.55 27.55 231.85 13.15ZM223.45 4.75Q205.55 22.5 205.55 47.75 205.55 73 223.45 90.85 223.65 90.95 223.9 91.2 L219.65 95.45Q219.4 95.25 219.15 95 199.55 75.5 199.55 47.75 199.55 20.05 219.15 0.45ZM284.3 272.65 255.6 301.35 255.6 336.5 292.7 336.5 292.7 341.45 216.65 341.45 216.65 336.4 251.55 336.4 251.55 298.45 281.1 269.1ZM227.7 307.1 227.7 313.45  234.05 313.45 234.05 316.1 227.7 316.1 227.7 322.45 225.05 322.45 225.05 316.1 218.85 316.1 218.85 313.45 225.05 313.45 225.05 307.1ZM233.7 348.6 273.8 348.6 273.8 353.25 256.2 353.25 256.2 394.75 260.45 395.65Q263.2 396.8 265.65 399.25 270.6  404.2 270.6 411.1 270.6 418 265.65 423 260.65 427.95 253.75 427.95 246.85 427.95 241.9 423 236.95 418 236.95 411.1 236.95 404.2 241.9 399.25 244.65 396.45 248 395.3L251 394.75 251 353.45 233.7 353.45ZM260.9 404.3Q257.9 401.3 253.75 401.3 249.6  401.3 246.6 404.3 243.6 407.3 243.6 411.45 243.6 415.6 246.6 418.6 249.6 421.6 253.75 421.6 257.9 421.6 260.9 418.6 263.9 415.6 263.9 411.45 263.9 407.3 260.9 404.3Z" fill="#FFFFFF" fill-opacity="1"/><path d="M663.3 278.3Q663.15 278.65 663.15 279 663.15 279.5 663.3 279.85 663.45 280.2 663.75 280.35 664 280.55 664.35 280.55 664.75 280.55 665.05 280.3 665.35 280.05 665.45 279.6L665.9 279.75Q665.8 280.1 665.65 280.35 665.5 280.5 665.35 280.65 664.95  280.95 664.4 280.95 663.8 280.95 663.4 280.7 663.05 280.5 662.85 280 662.65 279.55 662.65 279 662.65 278.45 662.9 278 663.1 277.6 663.5 277.35 663.9 277.15 664.4 277.15 664.95 277.15 665.35 277.4 665.55 277.55 665.65 277.75 665.8 277.95 665.85  278.2L665.4 278.35Q665.25 277.95 665 277.75 664.75 277.55 664.4 277.55 663.95 277.55 663.7 277.75 663.4 277.95 663.3 278.3ZM666.9 278.2 666.9 278.65Q667.05 278.35 667.2 278.25 667.3 278.15 667.45 278.15 667.7 278.15 667.95 278.3L667.8 278.75 Q667.6 278.65 667.45 278.65 667.3 278.65 667.2 278.7 667.05 278.8 667 278.95 666.95 279.2 666.95 279.5L666.95 280.9 666.5 280.9 666.5 278.2ZM665 284.05 665.55 285.7Q665.6 285.85 665.65 285.95 665.7 286.1 665.75 286.2 665.8 286 665.9 285.7L666.5  284.05 666.95 284.05 665.95 286.75 665.55 286.75 664.5 284.05ZM667.8 283.05 667.8 285.15 668.85 284.05 669.45 284.05 668.45 285.05 669.55 286.75 669 286.75 668.1 285.4 667.8 285.7 667.8 286.75 667.35 286.75 667.35 283.05ZM664.05 290.25Q663.85  290.25 663.65 290.35 663.5 290.45 663.4 290.65 663.35 290.8 663.35 291.15L663.35 292.6 662.9 292.6 662.9 288.9 663.35 288.9 663.35 290.25Q663.65 289.85 664.15 289.85 664.45 289.85 664.65 290 664.9 290.1 665 290.3 665.05 290.5 665.05 290.9L665.05  292.6 664.6 292.6 664.6 290.9Q664.6 290.55 664.45 290.4 664.3 290.25 664.05 290.25ZM665.55 289.9 665.85 289.9 665.85 289.25 666.3 289 666.3 289.9 666.8 289.9 666.8 290.3 666.3 290.3 666.3 291.85Q666.3 292.05 666.35 292.1 666.35 292.15 666.45  292.2 666.5 292.2 666.6 292.2 666.65 292.2 666.8 292.2L666.85 292.6Q666.65 292.65 666.5 292.65 666.35 292.65 666.25 292.65 666.15 292.6 666.1 292.55 666 292.5 665.95 292.35 665.85 292.2 665.85 291.8L665.85 290.3 665.55 290.3ZM667.7 289 667.7  289.9 668.2 289.9 668.2 290.3 667.7 290.3 667.7 291.85Q667.7 292.05 667.75 292.1 667.75 292.15 667.85 292.2 667.9 292.2 668 292.2 668.05 292.2 668.2 292.2L668.25 292.6Q668.05 292.65 667.9 292.65 667.65 292.65 667.5 292.55 667.4 292.5 667.35  292.35 667.25 292.2 667.25 291.8L667.25 290.3 666.95 290.3 666.95 289.9 667.25 289.9 667.25 289.25ZM685.65 278.2 686.25 279.75Q686.35 280.05 686.4 280.4 686.5 280.1 686.6 279.8L687.2 278.2 687.65 278.2 686.6 280.95Q686.45 281.4 686.35 281.55  686.25 281.8 686.1 281.9 685.95 282 685.7 282 685.6 282 685.4 281.95L685.35 281.5Q685.5 281.55 685.65 281.55 685.8 281.55 685.85 281.5 685.95 281.45 686 281.35 686.05 281.3 686.15 281L686.2 280.9 685.2 278.2ZM684.2 278.25Q684.4 278.35 684.55  278.55 684.7 278.7 684.8 279 684.85 279.25 684.85 279.5 684.85 280.2 684.5 280.6 684.2 280.95 683.7 280.95 683.25 280.95 682.95 280.55L682.95 280.9 682.55 280.9 682.55 277.2 683 277.2 683 278.5Q683.3 278.15 683.75 278.15 683.95 278.15 684.2  278.25ZM679.2 278.15Q679.45 278.15 679.65 278.25 679.85 278.35 679.95 278.55L679.95 277.2 680.4 277.2 680.4 280.9 680 280.9 680 280.55Q679.7 280.95 679.25 280.95 678.9 280.95 678.65 280.8 678.35 280.6 678.25 280.3 678.1 279.95 678.1 279.55  678.1 279.15 678.2 278.85 678.35 278.5 678.6 278.35 678.9 278.15 679.2 278.15ZM682.95 279.55Q682.95 280 683.1 280.25 683.3 280.6 683.65 280.6 683.95 280.6 684.2 280.35 684.4 280.05 684.4 279.55 684.4 279.05 684.2 278.8 684 278.55 683.7 278.55  683.4 278.55 683.15 278.8 682.95 279.05 682.95 279.55ZM679.75 278.8Q679.55 278.55 679.25 278.55 678.95 278.55 678.75 278.8 678.55 279.05 678.55 279.55 678.55 280.1 678.75 280.35 679 280.6 679.25 280.6 679.55 280.6 679.8 280.35 680 280.1 680  279.6 680 279.05 679.75 278.8ZM678.8 284.5Q679.15 284 679.65 284 680.05 284 680.25 284.25 680.45 284.45 680.45 284.9L680.45 286.75 680 286.75 680 285.05Q680 284.8 679.95 284.65 679.95 284.55 679.8 284.5 679.7 284.4 679.55 284.4 679.25 284.4  679.05 284.6 678.9 284.8 678.9 285.2L678.9 286.75 678.45 286.75 678.45 285Q678.45 284.7 678.3 284.55 678.2 284.4 677.95 284.4 677.75 284.4 677.6 284.5 677.45 284.6 677.35 284.8 677.3 285 677.3 285.35L677.3 286.75 676.85 286.75 676.85 284.05  677.25 284.05 677.25 284.45Q677.35 284.25 677.6 284.15 677.8 284 678.05 284 678.35 284 678.55 284.15 678.75 284.25 678.8 284.5ZM682.25 283 681.15 286.8 680.8 286.8 681.85 283ZM684.7 283.05 684.7 286.75 684.3 286.75 684.3 286.4Q684 286.8 683.55  286.8 683.2 286.8 682.95 286.65 682.65 286.45 682.55 286.15 682.4 285.8 682.4 285.4 682.4 285 682.5 284.7 682.65 284.35 682.9 284.2 683.2 284 683.5 284 683.75 284 683.95 284.1 684.15 284.2 684.25 284.4L684.25 283.05ZM687.45 284.4Q687.8 284.75  687.8 285.35 687.8 285.9 687.65 286.2 687.45 286.5 687.15 286.65 686.9 286.8 686.55 286.8 685.95 286.8 685.6 286.45 685.25 286.1 685.25 285.4 685.25 284.65 685.7 284.3 686.05 284 686.55 284 687.1 284 687.45 284.4ZM674 278.2 674 277.55 674.45  277.3 674.45 278.2 674.95 278.2 674.95 278.6 674.45 278.6 674.45 280.15Q674.45 280.35 674.5 280.4 674.5 280.45 674.6 280.5 674.65 280.5 674.75 280.5 674.8 280.5 674.95 280.5L675 280.9Q674.8 280.95 674.65 280.95 674.4 280.95 674.25 280.85 674.15  280.8 674.1 280.65 674 280.5 674 280.1L674 278.6 673.7 278.6 673.7 278.2ZM672.2 278.15Q672.55 278.15 672.8 278.25 673 278.3 673.1 278.45 673.2 278.55 673.25 278.75 673.25 278.85 673.25 279.15L673.25 279.8Q673.25 280.4 673.3 280.6 673.3 280.75  673.4 280.9L672.95 280.9Q672.85 280.75 672.85 280.55 672.6 280.8 672.35 280.85 672.1 280.95 671.85 280.95 671.4 280.95 671.15 280.75 670.95 280.55 670.95 280.2 670.95 280 671.05 279.85 671.1 279.65 671.25 279.55 671.4 279.5 671.6 279.45 671.7  279.4 672 279.35 672.55 279.3 672.8 279.2L672.8 279.1Q672.8 278.8 672.65 278.7 672.5 278.55 672.15 278.55 671.85 278.55 671.7 278.65 671.55 278.75 671.45 279.05L671 279Q671.1 278.7 671.2 278.55 671.35 278.35 671.6 278.25 671.9 278.15 672.2  278.15ZM672.8 279.55Q672.55 279.65 672.05 279.75 671.8 279.75 671.65 279.8 671.55 279.85 671.5 279.95 671.4 280.05 671.4 280.2 671.4 280.35 671.55 280.5 671.7 280.6 671.95 280.6 672.2 280.6 672.45 280.5 672.65 280.4 672.75 280.2 672.8 280 672.8  279.7ZM670.5 279.55Q670.5 279.6 670.5 279.7L668.5 279.7Q668.55 280.1 668.75 280.35 669 280.6 669.3 280.6 669.55 280.6 669.75 280.45 669.9 280.35 670 280.05L670.5 280.1Q670.4 280.5 670.1 280.75 669.8 280.95 669.3 280.95 668.75 280.95 668.4 280.6  668.05 280.25 668.05 279.6 668.05 278.9 668.4 278.55 668.75 278.15 669.3 278.15 669.85 278.15 670.15 278.55 670.5 278.9 670.5 279.55ZM669.85 278.8Q669.65 278.55 669.3 278.55 669 278.55 668.75 278.75 668.55 278.95 668.55 279.3L670.05 279.3Q670  278.95 669.85 278.8ZM672.45 284.4Q672.1 284.4 671.9 284.65 671.65 284.9 671.65 285.4 671.65 285.95 671.85 286.2 672.1 286.45 672.4 286.45 672.7 286.45 672.85 286.25 673.05 286.1 673.1 285.75L673.55 285.85Q673.45 286.3 673.15 286.55 672.85 286.8  672.4 286.8 671.85 286.8 671.55 286.45 671.2 286.1 671.2 285.4 671.2 285 671.35 284.65 671.5 284.35 671.8 284.2 672.1 284 672.4 284 672.85 284 673.15 284.25 673.4 284.45 673.5 284.85L673.05 284.95Q673 284.65 672.85 284.5 672.65 284.4 672.45  284.4ZM677.7 279.55Q677.7 279.6 677.7 279.7L675.7 279.7Q675.75 280.1 675.95 280.35 676.2 280.6 676.5 280.6 676.75 280.6 676.95 280.45 677.1 280.35 677.2 280.05L677.7 280.1Q677.6 280.5 677.3 280.75 677 280.95 676.5 280.95 675.95 280.95 675.6  280.6 675.25 280.25 675.25 279.6 675.25 278.9 675.6 278.55 675.95 278.15 676.5 278.15 677.05 278.15 677.35 278.55 677.7 278.9 677.7 279.55ZM675.95 278.75Q675.75 278.95 675.75 279.3L677.25 279.3Q677.2 278.95 677.05 278.8 676.85 278.55 676.5  278.55 676.2 278.55 675.95 278.75ZM675.05 284Q675.6 284 675.95 284.4 676.3 284.75 676.3 285.35 676.3 285.9 676.15 286.2 675.95 286.5 675.65 286.65 675.4 286.8 675.05 286.8 674.45 286.8 674.1 286.45 673.75 286.1 673.75 285.4 673.75 284.65 674.2  284.3 674.55 284 675.05 284ZM675.6 284.65Q675.35 284.4 675.05 284.4 674.7 284.4 674.45 284.65 674.25 284.9 674.25 285.4 674.25 285.95 674.45 286.2 674.7 286.45 675.05 286.45 675.35 286.45 675.6 286.2 675.8 285.9 675.8 285.4 675.8 284.9 675.6  284.65ZM674.75 289.9 674.75 290.45 674.2 290.45 674.2 289.9ZM678.05 288.85 676.95 292.65 676.6 292.65 677.65 288.85ZM676.65 288.85 675.55 292.65 675.2 292.65 676.25 288.85ZM670.05 286.25 670.6 286.25 670.6 286.75 670.05 286.75ZM669.4 289.95 Q669.55 289.85 669.85 289.85 670.15 289.85 670.45 290.05 670.7 290.2 670.85 290.55 670.95 290.85 670.95 291.25 670.95 291.65 670.8 292 670.65 292.3 670.4 292.5 670.1 292.65 669.8 292.65 669.55 292.65 669.4 292.55 669.2 292.45 669.1 292.3L669.1  293.65 668.65 293.65 668.65 289.9 669.05 289.9 669.05 290.25Q669.2 290.05 669.4 289.95ZM669.8 290.2Q669.5 290.2 669.3 290.5 669.05 290.75 669.05 291.3 669.05 291.8 669.25 292.05 669.45 292.3 669.75 292.3 670.05 292.3 670.3 292.05 670.5 291.8  670.5 291.25 670.5 290.75 670.3 290.45 670.1 290.2 669.8 290.2ZM671.7 290.05Q671.8 289.95 672 289.9 672.15 289.85 672.35 289.85 672.7 289.85 672.9 289.95 673.15 290.05 673.25 290.2 673.4 290.35 673.45 290.6L673 290.65Q672.95 290.45 672.8 290.35  672.65 290.25 672.4 290.25 672.1 290.25 671.95 290.35 671.8 290.45 671.8 290.6 671.8 290.65 671.9 290.75 671.95 290.8 672.05 290.85 672.1 290.9 672.45 291 672.95 291.1 673.15 291.2 673.3 291.25 673.4 291.45 673.55 291.6 673.55 291.8 673.55  292.05 673.4 292.25 673.25 292.45 673 292.55 672.75 292.65 672.45 292.65 671.95 292.65 671.65 292.45 671.4 292.25 671.3 291.8L671.75 291.75Q671.8 292 671.95 292.15 672.15 292.3 672.45 292.3 672.75 292.3 672.9 292.15 673.05 292.05 673.05 291.85  673.05 291.7 672.95 291.6 672.85 291.55 672.45 291.45 671.95 291.35 671.8 291.25 671.6 291.15 671.5 291 671.4 290.85 671.4 290.65 671.4 290.45 671.45 290.3 671.55 290.15 671.7 290.05ZM674.75 292.1 674.75 292.6 674.2 292.6 674.2 292.1ZM678.35  290.55Q678.5 290.2 678.75 290.05 679.05 289.85 679.35 289.85 679.6 289.85 679.8 289.95 680 290.05 680.1 290.25L680.1 288.9 680.55 288.9 680.55 292.6 680.15 292.6 680.15 292.25Q679.85 292.65 679.4 292.65 679.05 292.65 678.8 292.5 678.5 292.3  678.4 292 678.25 291.65 678.25 291.25 678.25 290.85 678.35 290.55ZM688.25 284.7Q688.4 284.35 688.65 284.2 688.9 284 689.3 284 689.75 284 690.05 284.4L690.05 284.05 690.5 284.05 690.5 286.4Q690.5 287 690.35 287.25 690.2 287.55 689.95 287.7 689.65  287.85 689.25 287.85 688.8 287.85 688.5 287.6 688.2 287.4 688.2 286.95L688.65 287.05Q688.7 287.25 688.8 287.35 688.95 287.45 689.25 287.45 689.6 287.45 689.75 287.35 689.9 287.2 690 287 690 286.85 690 286.4 689.7 286.75 689.25 286.75 688.7  286.75 688.4 286.35 688.1 285.95 688.1 285.4 688.1 285 688.25 284.7ZM687.1 286.2Q687.3 285.9 687.3 285.4 687.3 284.9 687.1 284.65 686.85 284.4 686.55 284.4 686.2 284.4 685.95 284.65 685.75 284.9 685.75 285.4 685.75 285.95 685.95 286.2 686.2  286.45 686.55 286.45 686.85 286.45 687.1 286.2ZM684.05 284.65Q683.85 284.4 683.55 284.4 683.25 284.4 683.05 284.65 682.85 284.9 682.85 285.4 682.85 285.95 683.05 286.2 683.3 286.45 683.55 286.45 683.85 286.45 684.1 286.2 684.3 285.95 684.3  285.45 684.3 284.9 684.05 284.65ZM684.5 290.05Q684.75 289.85 685.15 289.85 685.6 289.85 685.9 290.25L685.9 289.9 686.35 289.9 686.35 292.25Q686.35 292.85 686.2 293.1 686.05 293.4 685.8 293.55 685.5 293.7 685.1 293.7 684.65 293.7 684.35 293.45  684.05 293.25 684.05 292.8L684.5 292.9Q684.55 293.1 684.65 293.2 684.8 293.3 685.1 293.3 685.45 293.3 685.6 293.2 685.75 293.05 685.85 292.85 685.85 292.7 685.85 292.25 685.55 292.6 685.1 292.6 684.55 292.6 684.25 292.2 683.95 291.8 683.95  291.25 683.95 290.85 684.1 290.55 684.25 290.2 684.5 290.05ZM685.15 290.25Q684.85 290.25 684.65 290.5 684.45 290.75 684.45 291.2 684.45 291.75 684.65 292 684.85 292.2 685.15 292.2 685.5 292.2 685.7 292 685.9 291.75 685.9 291.25 685.9 290.75  685.7 290.5 685.45 290.25 685.15 290.25ZM687.35 290.05Q687.6 289.85 688 289.85 688.45 289.85 688.75 290.25L688.75 289.9 689.2 289.9 689.2 292.25Q689.2 292.85 689.05 293.1 688.9 293.4 688.65 293.55 688.35 293.7 687.95 293.7 687.5 293.7 687.2  293.45 686.9 293.25 686.9 292.8L687.35 292.9Q687.4 293.1 687.5 293.2 687.65 293.3 687.95 293.3 688.3 293.3 688.45 293.2 688.6 293.05 688.7 292.85 688.7 292.7 688.7 292.25 688.4 292.6 687.95 292.6 687.4 292.6 687.1 292.2 686.8 291.8 686.8 291.25  686.8 290.85 686.95 290.55 687.1 290.2 687.35 290.05ZM687.5 290.5Q687.3 290.75 687.3 291.2 687.3 291.75 687.5 292 687.7 292.2 688 292.2 688.35 292.2 688.55 292 688.75 291.75 688.75 291.25 688.75 290.75 688.55 290.5 688.3 290.25 688 290.25 687.7  290.25 687.5 290.5ZM678.9 290.5Q678.7 290.75 678.7 291.25 678.7 291.8 678.9 292.05 679.15 292.3 679.4 292.3 679.7 292.3 679.95 292.05 680.15 291.8 680.15 291.3 680.15 290.75 679.9 290.5 679.7 290.25 679.4 290.25 679.1 290.25 678.9 290.5ZM683.3  290.25Q683.65 290.6 683.65 291.2 683.65 291.75 683.5 292.05 683.3 292.35 683 292.5 682.75 292.65 682.4 292.65 681.8 292.65 681.45 292.3 681.1 291.95 681.1 291.25 681.1 290.5 681.55 290.15 681.9 289.85 682.4 289.85 682.95 289.85 683.3 290.25Z M682.4 290.25Q682.05 290.25 681.8 290.5 681.6 290.75 681.6 291.25 681.6 291.8 681.8 292.05 682.05 292.3 682.4 292.3 682.7 292.3 682.95 292.05 683.15 291.75 683.15 291.25 683.15 290.75 682.95 290.5 682.7 290.25 682.4 290.25ZM704.95 278.3 704.8  278.75Q704.6 278.65 704.45 278.65 704.3 278.65 704.2 278.7 704.05 278.8 704 278.95 703.95 279.2 703.95 279.5L703.95 280.9 703.5 280.9 703.5 278.2 703.9 278.2 703.9 278.65Q704.05 278.35 704.2 278.25 704.3 278.15 704.45 278.15 704.7 278.15 704.95  278.3ZM705.3 278.2 705.3 277.55 705.75 277.3 705.75 278.2 706.25 278.2 706.25 278.6 705.75 278.6 705.75 280.15Q705.75 280.35 705.8 280.4 705.8 280.45 705.9 280.5 705.95 280.5 706.05 280.5 706.1 280.5 706.25 280.5L706.3 280.9Q706.1 280.95 705.95  280.95 705.7 280.95 705.55 280.85 705.45 280.8 705.4 280.65 705.3 280.5 705.3 280.1L705.3 278.6 705 278.6 705 278.2ZM701.1 277.2 701.65 277.2 701.7 277.25 703.15 280.9 702.6 280.9 702.15 279.8 700.6 279.8 700.2 280.9 699.7 280.9 701.1 277.25Z M701.35 277.6Q701.3 277.95 701.15 278.3L700.75 279.4 702 279.4 701.65 278.35Q701.45 277.9 701.35 277.6ZM700.3 284Q700.85 284 701.2 284.4 701.55 284.75 701.55 285.35 701.55 285.9 701.4 286.2 701.2 286.5 700.9 286.65 700.65 286.8 700.3 286.8 699.7  286.8 699.35 286.45 699 286.1 699 285.4 699 284.65 699.45 284.3 699.8 284 700.3 284ZM702.5 284.45Q702.6 284.25 702.85 284.15 703.05 284 703.3 284 703.6 284 703.8 284.15 704 284.25 704.05 284.5 704.4 284 704.9 284 705.3 284 705.5 284.25 705.7  284.45 705.7 284.9L705.7 286.75 705.25 286.75 705.25 285.05Q705.25 284.8 705.2 284.65 705.2 284.55 705.05 284.5 704.95 284.4 704.8 284.4 704.5 284.4 704.3 284.6 704.15 284.8 704.15 285.2L704.15 286.75 703.7 286.75 703.7 285Q703.7 284.7 703.55  284.55 703.45 284.4 703.2 284.4 703 284.4 702.85 284.5 702.7 284.6 702.6 284.8 702.55 285 702.55 285.35L702.55 286.75 702.1 286.75 702.1 284.05 702.5 284.05ZM707.75 278.55Q707.45 278.55 707.2 278.75 707 278.95 707 279.3L708.5 279.3Q708.45 278.95  708.3 278.8 708.1 278.55 707.75 278.55ZM706.85 278.55Q707.2 278.15 707.75 278.15 708.3 278.15 708.6 278.55 708.95 278.9 708.95 279.55 708.95 279.6 708.95 279.7L706.95 279.7Q707 280.1 707.2 280.35 707.45 280.6 707.75 280.6 708 280.6 708.2 280.45  708.35 280.35 708.45 280.05L708.95 280.1Q708.85 280.5 708.55 280.75 708.25 280.95 707.75 280.95 707.2 280.95 706.85 280.6 706.5 280.25 706.5 279.6 706.5 278.9 706.85 278.55ZM707 284.5Q706.85 284.6 706.75 284.9L706.3 284.85Q706.4 284.55 706.5  284.4 706.65 284.2 706.9 284.1 707.2 284 707.5 284 707.85 284 708.1 284.1 708.3 284.15 708.4 284.3 708.5 284.4 708.55 284.6 708.55 284.7 708.55 285L708.55 285.65Q708.55 286.25 708.6 286.45 708.6 286.6 708.7 286.75L708.25 286.75Q708.15 286.6  708.15 286.4 707.9 286.65 707.65 286.7 707.4 286.8 707.15 286.8 706.7 286.8 706.45 286.6 706.25 286.4 706.25 286.05 706.25 285.85 706.35 285.7 706.4 285.5 706.55 285.4 706.7 285.35 706.9 285.3 707 285.25 707.3 285.2 707.85 285.15 708.1 285.05 L708.1 284.95Q708.1 284.65 707.95 284.55 707.8 284.4 707.45 284.4 707.15 284.4 707 284.5ZM694.2 277.2 694.2 280.9 693.75 280.9 693.75 277.2ZM695.35 277.2 695.35 277.75 694.9 277.75 694.9 277.2ZM695.35 278.2 695.35 280.9 694.9 280.9 694.9 278.2Z M697.75 278.25Q697.95 278.35 698.05 278.5 698.15 278.6 698.2 278.8 698.2 278.95 698.2 279.25L698.2 280.9 697.75 280.9 697.75 279.25Q697.75 279 697.7 278.85 697.65 278.7 697.5 278.65 697.4 278.55 697.2 278.55 696.9 278.55 696.7 278.75 696.5 278.9  696.5 279.45L696.5 280.9 696.05 280.9 696.05 278.2 696.45 278.2 696.45 278.6Q696.75 278.15 697.3 278.15 697.55 278.15 697.75 278.25ZM692 277.65 690 277.65 690 278.8 691.75 278.8 691.75 279.2 690 279.2 690 280.9 689.5 280.9 689.5 277.2 692 277.2Z M693.05 278.2 693.05 280.9 692.6 280.9 692.6 278.2ZM692.6 277.75 692.6 277.2 693.05 277.2 693.05 277.75ZM692.15 284Q692.6 284 692.9 284.4L692.9 284.05 693.35 284.05 693.35 286.4Q693.35 287 693.2 287.25 693.05 287.55 692.8 287.7 692.5 287.85  692.1 287.85 691.65 287.85 691.35 287.6 691.05 287.4 691.05 286.95L691.5 287.05Q691.55 287.25 691.65 287.35 691.8 287.45 692.1 287.45 692.45 287.45 692.6 287.35 692.75 287.2 692.85 287 692.85 286.85 692.85 286.4 692.55 286.75 692.1 286.75 691.55  286.75 691.25 286.35 690.95 285.95 690.95 285.4 690.95 285 691.1 284.7 691.25 284.35 691.5 284.2 691.75 284 692.15 284ZM694.25 284.05 694.85 285.6Q694.95 285.9 695 286.25 695.1 285.95 695.2 285.65L695.8 284.05 696.25 284.05 695.2 286.8Q695.05  287.25 694.95 287.4 694.85 287.65 694.7 287.75 694.55 287.85 694.3 287.85 694.2 287.85 694 287.8L693.95 287.35Q694.1 287.4 694.25 287.4 694.4 287.4 694.45 287.35 694.55 287.3 694.6 287.2 694.65 287.15 694.75 286.85L694.8 286.75 693.8 284.05Z M697 284.05 697.4 284.7Q697.5 284.9 697.6 285 697.7 284.85 697.8 284.7L698.25 284.05 698.75 284.05 697.85 285.35 698.85 286.75 698.3 286.75 697.6 285.7 696.9 286.75 696.35 286.75 697.3 285.35 696.4 284.05ZM694.05 289.9 694.55 289.9 693.65 291.2  694.65 292.6 694.1 292.6 693.4 291.55 692.7 292.6 692.15 292.6 693.1 291.2 692.2 289.9 692.8 289.9 693.2 290.55Q693.3 290.75 693.4 290.85 693.5 290.7 693.6 290.55ZM698.3 289.9 698.3 290.3Q698.4 290.1 698.65 290 698.85 289.85 699.1 289.85 699.4  289.85 699.6 290 699.8 290.1 699.85 290.35 700.2 289.85 700.7 289.85 701.1 289.85 701.3 290.1 701.5 290.3 701.5 290.75L701.5 292.6 701.05 292.6 701.05 290.9Q701.05 290.65 701 290.5 701 290.4 700.85 290.35 700.75 290.25 700.6 290.25 700.3 290.25  700.1 290.45 699.95 290.65 699.95 291.05L699.95 292.6 699.5 292.6 699.5 290.85Q699.5 290.55 699.35 290.4 699.25 290.25 699 290.25 698.8 290.25 698.65 290.35 698.5 290.45 698.4 290.65 698.35 290.85 698.35 291.2L698.35 292.6 697.9 292.6 697.9  289.9ZM696.15 290.25Q695.8 290.25 695.55 290.5 695.35 290.75 695.35 291.25 695.35 291.8 695.55 292.05 695.8 292.3 696.15 292.3 696.45 292.3 696.7 292.05 696.9 291.75 696.9 291.25 696.9 290.75 696.7 290.5 696.45 290.25 696.15 290.25ZM697.05  290.25Q697.4 290.6 697.4 291.2 697.4 291.75 697.25 292.05 697.05 292.35 696.75 292.5 696.5 292.65 696.15 292.65 695.55 292.65 695.2 292.3 694.85 291.95 694.85 291.25 694.85 290.5 695.3 290.15 695.65 289.85 696.15 289.85 696.7 289.85 697.05  290.25ZM692.7 284.65Q692.45 284.4 692.15 284.4 691.85 284.4 691.65 284.65 691.45 284.9 691.45 285.35 691.45 285.9 691.65 286.15 691.85 286.35 692.15 286.35 692.5 286.35 692.7 286.15 692.9 285.9 692.9 285.4 692.9 284.9 692.7 284.65ZM690.05 285.4 Q690.05 284.9 689.85 284.65 689.6 284.4 689.3 284.4 689 284.4 688.8 284.65 688.6 284.9 688.6 285.35 688.6 285.9 688.8 286.15 689 286.35 689.3 286.35 689.65 286.35 689.85 286.15 690.05 285.9 690.05 285.4ZM690.1 289.9 690.7 291.45Q690.8 291.75  690.85 292.1 690.95 291.8 691.05 291.5L691.65 289.9 692.1 289.9 691.05 292.65Q690.9 293.1 690.8 293.25 690.7 293.5 690.55 293.6 690.4 293.7 690.15 293.7 690.05 293.7 689.85 293.65L689.8 293.2Q689.95 293.25 690.1 293.25 690.25 293.25 690.3 293.2  690.4 293.15 690.45 293.05 690.5 293 690.6 292.7L690.65 292.6 689.65 289.9ZM708.1 285.4Q707.85 285.5 707.35 285.6 707.1 285.6 706.95 285.65 706.85 285.7 706.8 285.8 706.7 285.9 706.7 286.05 706.7 286.2 706.85 286.35 707 286.45 707.25 286.45  707.5 286.45 707.75 286.35 707.95 286.25 708.05 286.05 708.1 285.85 708.1 285.55ZM704.2 290.15Q704.3 290.25 704.35 290.45 704.35 290.55 704.35 290.85L704.35 291.5Q704.35 292.1 704.4 292.3 704.4 292.45 704.5 292.6L704.05 292.6Q703.95 292.45  703.95 292.25 703.7 292.5 703.45 292.55 703.2 292.65 702.95 292.65 702.5 292.65 702.25 292.45 702.05 292.25 702.05 291.9 702.05 291.7 702.15 291.55 702.2 291.35 702.35 291.25 702.5 291.2 702.7 291.15 702.8 291.1 703.1 291.05 703.65 291 703.9  290.9L703.9 290.8Q703.9 290.5 703.75 290.4 703.6 290.25 703.25 290.25 702.95 290.25 702.8 290.35 702.65 290.45 702.55 290.75L702.1 290.7Q702.2 290.4 702.3 290.25 702.45 290.05 702.7 289.95 703 289.85 703.3 289.85 703.65 289.85 703.9 289.95  704.1 290 704.2 290.15ZM705.85 290.55Q705.95 290.75 706.05 290.85 706.15 290.7 706.25 290.55L706.7 289.9 707.2 289.9 706.3 291.2 707.3 292.6 706.75 292.6 706.05 291.55 705.35 292.6 704.8 292.6 705.75 291.2 704.85 289.9 705.45 289.9ZM700.85  284.65Q700.6 284.4 700.3 284.4 699.95 284.4 699.7 284.65 699.5 284.9 699.5 285.4 699.5 285.95 699.7 286.2 699.95 286.45 700.3 286.45 700.6 286.45 700.85 286.2 701.05 285.9 701.05 285.4 701.05 284.9 700.85 284.65ZM702.65 292.2Q702.8 292.3 703.05  292.3 703.3 292.3 703.55 292.2 703.75 292.1 703.85 291.9 703.9 291.7 703.9 291.4L703.9 291.25Q703.65 291.35 703.15 291.45 702.9 291.45 702.75 291.5 702.65 291.55 702.6 291.65 702.5 291.75 702.5 291.9 702.5 292.05 702.65 292.2ZM708.35 292.1  708.35 292.6 707.8 292.6 707.8 292.1ZM709.95 278.2 709.95 278.6Q710.05 278.4 710.3 278.3 710.5 278.15 710.75 278.15 711.05 278.15 711.25 278.3 711.45 278.4 711.5 278.65 711.85 278.15 712.35 278.15 712.75 278.15 712.95 278.4 713.15 278.6 713.15  279.05L713.15 280.9 712.7 280.9 712.7 279.2Q712.7 278.95 712.65 278.8 712.65 278.7 712.5 278.65 712.4 278.55 712.25 278.55 711.95 278.55 711.75 278.75 711.6 278.95 711.6 279.35L711.6 280.9 711.15 280.9 711.15 279.15Q711.15 278.85 711 278.7  710.9 278.55 710.65 278.55 710.45 278.55 710.3 278.65 710.15 278.75 710.05 278.95 710 279.15 710 279.5L710 280.9 709.55 280.9 709.55 278.2ZM709.6 284.05 710 284.7Q710.1 284.9 710.2 285 710.3 284.85 710.4 284.7L710.85 284.05 711.35 284.05 710.45  285.35 711.45 286.75 710.9 286.75 710.2 285.7 709.5 286.75 708.95 286.75 709.9 285.35 709 284.05ZM709.8 289.95Q709.9 289.85 710.05 289.85 710.3 289.85 710.55 290L710.4 290.45Q710.2 290.35 710.05 290.35 709.9 290.35 709.8 290.4 709.65 290.5  709.6 290.65 709.55 290.9 709.55 291.2L709.55 292.6 709.1 292.6 709.1 289.9 709.5 289.9 709.5 290.35Q709.65 290.05 709.8 289.95ZM713 289.9 713 292.6 712.6 292.6 712.6 292.2Q712.3 292.65 711.75 292.65 711.5 292.65 711.3 292.55 711.1 292.5 711  292.35 710.9 292.2 710.85 292 710.85 291.85 710.85 291.6L710.85 289.9 711.3 289.9 711.3 291.4Q711.3 291.75 711.3 291.9 711.35 292.05 711.5 292.15 711.65 292.25 711.85 292.25 712.05 292.25 712.2 292.15 712.4 292.05 712.45 291.9 712.55 291.7  712.55 291.35L712.55 289.9Z" fill="#FFFFFE" fill-opacity="1"/></g></g></g></svg>